<?xml version="1.0" encoding="utf-8"?>
<!-- Generator: Adobe Illustrator 22.0.0, SVG Export Plug-In . SVG Version: 6.00 Build 0)  -->
<svg version="1.1" id="Layer_1" xmlns="http://www.w3.org/2000/svg" xmlns:xlink="http://www.w3.org/1999/xlink" x="0px" y="0px"
	 viewBox="0 0 161.7 48.8" style="enable-background:new 0 0 161.7 48.8;" xml:space="preserve">
<style type="text/css">
	.st0{fill:#727272;}
	.st1{fill:#352F7C;}
	.st2{fill:#273D8C;}
	.st3{fill:#FD42A8;}
	.st4{fill:#214295;}
	.st5{fill:#F2ADBD;}
	.st6{fill:#A19AC3;}
	.st7{fill:#F3BD5C;}
	.st8{fill:#4FD8CC;}
	.st9{fill:#F3C064;}
	.st10{fill:#272869;}
	.st11{fill:#313C82;}
	.st12{fill:#313E88;}
	.st13{fill:#32327E;}
	.st14{fill:#373873;}
	.st15{fill:#389EC5;}
	.st16{fill:#1E1E67;}
	.st17{fill:#32328C;}
	.st18{fill:#1E2064;}
	.st19{fill:#28286C;}
	.st20{fill:#1B1A5D;}
	.st21{fill:#293A89;}
	.st22{fill:#234091;}
	.st23{fill:#2A3995;}
	.st24{fill:#1A2F7E;}
	.st25{fill:#1C3588;}
	.st26{fill:#232F7A;}
	.st27{fill:#151450;}
	.st28{fill:#1D2572;}
	.st29{fill:#FD3BAF;}
	.st30{fill:#FD47A1;}
	.st31{fill:#FD4D9B;}
	.st32{fill:#E54E96;}
	.st33{fill:#26CBC6;}
	.st34{fill:#0F94CB;}
	.st35{fill:#FC6085;}
	.st36{fill:#172273;}
	.st37{fill:#0E9BCA;}
	.st38{fill:#FA9449;}
	.st39{fill:#FAAA32;}
	.st40{fill:#F99F3D;}
	.st41{fill:#F7B02C;}
	.st42{fill:#FB7E63;}
	.st43{fill:#FB8759;}
	.st44{fill:#FB904E;}
	.st45{fill:#F8B22A;}
	.st46{fill:#FA8859;}
	.st47{fill:#FB697B;}
	.st48{fill:#FC7B68;}
	.st49{fill:#FB766D;}
	.st50{fill:#02DFC2;}
	.st51{fill:#35D3C6;}
	.st52{fill:#40C8C6;}
	.st53{fill:#44D0C8;}
	.st54{fill:#FA9548;}
	.st55{fill:#FB9E35;}
	.st56{fill:#02DAC5;}
	.st57{fill:#303380;}
	.st58{fill:#2E2D6F;}
	.st59{fill:#2E3683;}
	.st60{fill:#2F3381;}
	.st61{fill:#383873;}
	.st62{fill:#1F1F68;}
	.st63{fill:#2D3784;}
	.st64{fill:#242569;}
	.st65{fill:#2D3885;}
	.st66{fill:#232972;}
	.st67{fill:#FD5294;}
	.st68{fill:#07BBC8;}
	.st69{fill:#11499A;}
	.st70{fill:#05C9C6;}
	.st71{fill:#03CFC5;}
	.st72{fill:#05C3C6;}
	.st73{fill:#03D4C5;}
	.st74{fill:#FD5B89;}
	.st75{fill:#FD568E;}
	.st76{fill:#FC6481;}
	.st77{fill:#F99B42;}
	.st78{fill:#F9A337;}
	.st79{fill:#FAB020;}
	.st80{fill:#FAB021;}
	.st81{fill:#FB825E;}
	.st82{fill:#FB8B53;}
	.st83{fill:#FB835E;}
	.st84{fill:#FB7171;}
	.st85{fill:#FD6E76;}
	.st86{fill:#78DED7;}
	.st87{fill:#EFBA88;}
	.st88{fill:#F78C66;}
	.st89{fill:#F47A86;}
	.st90{fill:#F89A4B;}
	.st91{fill:#FB5C93;}
	.st92{fill:#FA8066;}
	.st93{fill:#FA9549;}
	.st94{fill:#FA49AD;}
	.st95{fill:#FA8958;}
	.st96{fill:#F7A83C;}
	.st97{fill:#FB736F;}
	.st98{fill:#FC9D32;}
	.st99{clip-path:url(#SVGID_2_);fill:#36CFC5;}
	.st100{clip-path:url(#SVGID_2_);fill:#389EC5;}
	.st101{clip-path:url(#SVGID_2_);fill:#F3C166;}
	.st102{clip-path:url(#SVGID_2_);fill:#303380;}
	.st103{clip-path:url(#SVGID_2_);fill:#BB74AE;}
	.st104{clip-path:url(#SVGID_2_);fill:#04D9C5;}
	.st105{clip-path:url(#SVGID_2_);fill:#05CAC6;}
	.st106{clip-path:url(#SVGID_2_);fill:#42C6C4;}
	.st107{clip-path:url(#SVGID_2_);fill:#2DB4C4;}
	.st108{clip-path:url(#SVGID_2_);fill:#164DA1;}
	.st109{clip-path:url(#SVGID_2_);fill:#0FA2CB;}
	.st110{clip-path:url(#SVGID_2_);fill:#DE7771;}
	.st111{clip-path:url(#SVGID_2_);fill:#1A2F7E;}
	.st112{clip-path:url(#SVGID_2_);fill:#162173;}
	.st113{clip-path:url(#SVGID_2_);fill:#FD568F;}
	.st114{clip-path:url(#SVGID_2_);fill:#FD47A1;}
	.st115{clip-path:url(#SVGID_2_);fill:#F845AA;}
	.st116{clip-path:url(#SVGID_2_);fill:#C676B4;}
	.st117{clip-path:url(#SVGID_2_);fill:#FC44AC;}
	.st118{clip-path:url(#SVGID_2_);fill:#DB5794;}
	.st119{clip-path:url(#SVGID_2_);fill:#E06680;}
	.st120{clip-path:url(#SVGID_2_);fill:#03D4C5;}
	.st121{clip-path:url(#SVGID_2_);fill:#0AB4C7;}
	.st122{clip-path:url(#SVGID_2_);fill:#05C4C6;}
	.st123{clip-path:url(#SVGID_2_);fill:#03CFC5;}
	.st124{clip-path:url(#SVGID_2_);fill:#1CBFCB;}
	.st125{clip-path:url(#SVGID_2_);fill:#124FA4;}
	.st126{clip-path:url(#SVGID_2_);fill:#19499C;}
	.st127{clip-path:url(#SVGID_2_);fill:#164FA9;}
	.st128{clip-path:url(#SVGID_2_);fill:#134095;}
	.st129{clip-path:url(#SVGID_2_);fill:#1C3588;}
	.st130{clip-path:url(#SVGID_2_);fill:#1945A0;}
	.st131{clip-path:url(#SVGID_2_);fill:#11499A;}
	.st132{clip-path:url(#SVGID_2_);fill:#0BAECA;}
	.st133{clip-path:url(#SVGID_2_);fill:#0BA8CA;}
	.st134{clip-path:url(#SVGID_2_);fill:#E86777;}
	.st135{clip-path:url(#SVGID_2_);fill:#FB746F;}
	.st136{clip-path:url(#SVGID_2_);fill:#FC6D76;}
	.st137{clip-path:url(#SVGID_2_);fill:#273D8E;}
	.st138{clip-path:url(#SVGID_2_);fill:#234090;}
	.st139{clip-path:url(#SVGID_2_);fill:#293988;}
	.st140{clip-path:url(#SVGID_2_);fill:#2D3784;}
	.st141{clip-path:url(#SVGID_2_);fill:#FD5294;}
	.st142{clip-path:url(#SVGID_2_);fill:#FD4D9B;}
	.st143{clip-path:url(#SVGID_2_);fill:#FD5B89;}
	.st144{clip-path:url(#SVGID_2_);fill:#E54A8A;}
	.st145{clip-path:url(#SVGID_2_);fill:#FC6184;}
	.st146{clip-path:url(#SVGID_2_);fill:#E5975C;}
	.st147{clip-path:url(#SVGID_2_);fill:#E8A254;}
	.st148{clip-path:url(#SVGID_2_);fill:#D8617F;}
	.st149{clip-path:url(#SVGID_2_);fill:#E79C58;}
	.st150{clip-path:url(#SVGID_2_);fill:#E79D57;}
	.st151{clip-path:url(#SVGID_2_);fill:#D65687;}
	.st152{clip-path:url(#SVGID_2_);fill:#EAAB4E;}
	.st153{clip-path:url(#SVGID_2_);fill:#E49060;}
	.st154{clip-path:url(#SVGID_2_);fill:#E28A65;}
	.st155{clip-path:url(#SVGID_2_);fill:#E07D6D;}
	.st156{clip-path:url(#SVGID_2_);fill:#E5975B;}
	.st157{clip-path:url(#SVGID_2_);fill:#E48E62;}
	.st158{clip-path:url(#SVGID_2_);fill:#DD7573;}
	.st159{clip-path:url(#SVGID_2_);fill:#E5955D;}
	.st160{clip-path:url(#SVGID_2_);fill:#D75B83;}
	.st161{clip-path:url(#SVGID_2_);fill:#E4925F;}
	.st162{clip-path:url(#SVGID_2_);fill:#E07F6C;}
	.st163{clip-path:url(#SVGID_2_);fill:#DB6C78;}
	.st164{clip-path:url(#SVGID_2_);fill:#DE7871;}
	.st165{clip-path:url(#SVGID_2_);fill:#E38B63;}
	.st166{clip-path:url(#SVGID_2_);fill:#E9A651;}
	.st167{clip-path:url(#SVGID_2_);fill:#DB6D78;}
	.st168{clip-path:url(#SVGID_2_);fill:#E18568;}
	.st169{clip-path:url(#SVGID_2_);fill:#DA687B;}
	.st170{clip-path:url(#SVGID_2_);fill:#E9A751;}
	.st171{clip-path:url(#SVGID_2_);fill:#DC7275;}
	.st172{clip-path:url(#SVGID_2_);fill:#E18468;}
	.st173{clip-path:url(#SVGID_2_);fill:#E38B65;}
	.st174{clip-path:url(#SVGID_2_);fill:#E07E6D;}
	.st175{clip-path:url(#SVGID_2_);fill:#13ADC6;}
	.st176{clip-path:url(#SVGID_2_);fill:#143F94;}
	.st177{clip-path:url(#SVGID_2_);fill:#1E4597;}
	.st178{clip-path:url(#SVGID_2_);fill:#214294;}
	.st179{clip-path:url(#SVGID_2_);fill:#07BBC8;}
	.st180{clip-path:url(#SVGID_2_);fill:#FD697C;}
	.st181{clip-path:url(#SVGID_2_);fill:#1A307F;}
	.st182{clip-path:url(#SVGID_2_);fill:#172172;}
	.st183{clip-path:url(#SVGID_2_);fill:#293F99;}
</style>
<g>
	<path d="M15.6,32.1h-4.1l-0.8-5.2H5.5l-0.8,5.2H0.7V32L6,4.5h4.3L15.6,32.1z M10.1,23.3l-2-12.4l-2,12.4H10.1z"/>
	<path d="M28.7,32.1H17.9V4.5H22v23.9h6.7V32.1z"/>
	<path d="M42,32.1H31.2V4.5h4.1v23.9H42V32.1z"/>
	<path d="M57.8,19.5c0,1.7-0.8,2.6-2.5,2.6h-6.7v10h-4.1V4.5h10.8c1.7,0,2.5,0.8,2.5,2.5V19.5z M53.6,18.6V8.1h-5v10.5H53.6z"/>
	<path d="M74.5,32.1h-4.2V19.7h-5.6v12.4h-4.1V4.5h4.1v11.4h5.6V4.5h4.2V32.1z"/>
	<path d="M91.7,29.6c0,1.7-0.8,2.5-2.5,2.5h-8.9c-1.6,0-2.4-0.8-2.4-2.5V7.1c0-1.7,0.8-2.5,2.4-2.5h8.9c1.7,0,2.5,0.8,2.5,2.5V29.6z
		 M87.6,28.5V8.1h-5.6v20.5H87.6z"/>
	<path d="M109,32.1h-3.6l-6.6-17.3c0.2,0.8,0.3,1.5,0.3,2v15.3h-4V4.5h3.6l6.6,17c-0.2-0.8-0.3-1.5-0.3-2v-15h4V32.1z"/>
	<path d="M123.7,32.1h-11.4V4.5h11.3v3.6h-7.2v8h6.2v3.6h-6.2v8.6h7.3V32.1z"/>
</g>
<g>
	<path class="st0" d="M4.2,39.5c0-0.4-0.1-0.7-0.3-0.9c-0.2-0.2-0.5-0.3-0.8-0.3H0.9v-1h2.6c0.6,0,1.2,0.2,1.5,0.5s0.5,0.9,0.5,1.7
		v4.5H4.2V39.5z"/>
	<path class="st0" d="M11.7,37.3v1.1l-2.3,5.7H8.1l2.3-5.8H6.8v-2.9h1.2v1.9H11.7z"/>
	<path class="st0" d="M13,38.8l-0.1-1.4h1.3l0.2,1.4v5.4H13V38.8z"/>
	<path class="st0" d="M20.5,37.3v1.1l-2.3,5.7h-1.3l2.3-5.8h-3.6v-2.9h1.2v1.9H20.5z"/>
	<path class="st0" d="M26.2,43.2c-0.9,0.6-2.2,1-3.8,1l-0.7-5.9l-0.1-1H25c0.8,0,1.3,0.2,1.8,0.7s0.6,1,0.7,1.8l0,0.4
		C27.5,41.6,27.1,42.6,26.2,43.2z M25.5,42.3c0.5-0.4,0.7-1.1,0.6-2.1v-0.3c0-0.5-0.1-0.8-0.3-1.1c-0.2-0.3-0.5-0.4-0.9-0.4h-2
		l0.5,4.8C24.4,43,25.1,42.7,25.5,42.3z"/>
	<path class="st0" d="M33.5,37.3v1.1l-2.3,5.7h-1.3l2.3-5.8h-3.6v-2.9h1.2v1.9H33.5z"/>
	<path class="st0" d="M42.2,37.9c0.4,0.4,0.5,0.9,0.5,1.7v4.5h-1.3h-4h-0.3v-6.8h1.3h2.2C41.3,37.3,41.8,37.5,42.2,37.9z M41.4,43.2
		v-3.6c0-0.4-0.1-0.7-0.3-0.9c-0.2-0.2-0.5-0.3-0.8-0.3h-1.9v4.8H41.4z"/>
	<path class="st0" d="M44.3,38.8l-0.1-1.4h1.3l0.2,1.4v1.8l0,0.8l-1.3,0.2V38.8z"/>
	<path class="st0" d="M50.1,39.5c0-0.4-0.1-0.7-0.3-0.9c-0.2-0.2-0.5-0.3-0.8-0.3h-2.2v-1h2.6c0.6,0,1.2,0.2,1.5,0.5
		s0.5,0.9,0.5,1.7v4.5h-1.3V39.5z"/>
	<path class="st0" d="M53.6,39.7c0-0.6,0.1-1.1,0.3-1.4h-1.2v-1H56v1h-0.9c-0.1,0.2-0.2,0.4-0.2,0.6c0,0.2,0,0.5,0,0.8v4.4h-1.3
		V39.7z"/>
	<path class="st0" d="M57.5,38.8l-0.1-1.4h1.3l0.2,1.4v1.8l0,0.8l-1.3,0.2V38.8z"/>
	<path class="st0" d="M65.6,43.2v1h-2.1h-3.4v-1h3.4v-3.6c0-0.4-0.1-0.7-0.3-0.9c-0.2-0.2-0.5-0.3-0.8-0.3h-2.3v-1h2.6
		c0.6,0,1.2,0.2,1.5,0.5s0.5,0.9,0.5,1.7v3.5H65.6z"/>
	<path class="st0" d="M71.3,44.1l-2.5-3.9l-1.2,3.9h-1.2l1.3-4.2l0.3-0.9l-1.1-1.8h1.3l1,1.6l1,1.5l0.3-1.1l0.6-2.1h1.2L71,41.6
		l1.7,2.5H71.3z"/>
	<path class="st0" d="M76.1,40.7l0.2-0.8h1.1v6.7h-1.3V40.7z M78.3,43.2c0.4,0,0.7-0.1,1-0.3s0.5-0.4,0.7-0.8
		c0.2-0.4,0.3-0.8,0.3-1.4l0.2-2.3h-4.3v-1h5.7l0,0.9l-0.2,2.2c-0.1,1.2-0.4,2.1-0.9,2.8c-0.5,0.7-1.3,1-2.3,1L78.3,43.2z"/>
	<path class="st0" d="M83.2,38.8l-0.1-1.4h1.3l0.2,1.4v5.4h-1.3V38.8z"/>
	<path class="st0" d="M86.1,38.8L86,37.3h1.3l0.2,1.4v5.4h-1.3V38.8z"/>
	<path class="st0" d="M89,38.8l-0.1-1.4h1.3l0.2,1.4v1.8l0,0.8L89,41.6V38.8z"/>
	<path class="st0" d="M97,43c-1,0.8-2.5,1.3-4.5,1.2l-0.9-6.9h1.2l0.4,3.2c0.4-0.2,0.7-0.5,0.9-0.9c0.2-0.4,0.3-0.9,0.3-1.6v-0.8
		h1.2l0,0.7c0,0.9-0.2,1.6-0.5,2.1c-0.3,0.5-0.9,1-1.7,1.3l0.2,1.6c1.2-0.1,2.1-0.4,2.7-1.1s0.9-1.6,0.9-2.8l0-1.9h1.3l0,1.9
		C98.4,40.9,98,42.2,97,43z"/>
	<path class="st0" d="M99.8,38.8l-0.1-1.4h1.3l0.2,1.4v5.4h-1.3V38.8z"/>
	<path class="st0" d="M109.6,44.1l-2.5-3.9l-1.2,3.9h-1.2L106,40l0.3-0.9l-1.1-1.8h1.3l1,1.6l1,1.5l0.3-1.1l0.6-2.1h1.2l-1.4,4.3
		l1.7,2.5H109.6z"/>
	<path class="st0" d="M112.3,38.8l-0.1-1.4h1.3l0.2,1.4v5.4h-1.3V38.8z"/>
	<path class="st0" d="M120.4,43.2v1h-2.1h-3.4v-1h3.4v-3.6c0-0.4-0.1-0.7-0.3-0.9c-0.2-0.2-0.5-0.3-0.8-0.3h-2.3v-1h2.6
		c0.6,0,1.2,0.2,1.5,0.5c0.4,0.4,0.5,0.9,0.5,1.7v3.5H120.4z"/>
	<path class="st0" d="M121.6,38.8l-0.1-1.4h1.3l0.2,1.4v1.8l0,0.8l-1.3,0.2V38.8z"/>
	<path class="st0" d="M124.6,38.8l-0.1-1.4h1.3l0.2,1.4v1.8l0,0.8l-1.3,0.2V38.8z"/>
</g>
<g>
	<path class="st1" d="M161.1,44c0,0.4-0.2,0.7-0.5,1c-0.1-0.1,0,0,0,0c0,0,0,0,0,0c-0.1,0.2-0.2,0.5-0.5,0.7c-0.2,0-0.3,0.2-0.4,0.3
		c-0.2,0.3-0.5,0.6-0.8,0.8c-0.1,0.1-0.1,0.1-0.2,0.2c0.1-0.1,0.2-0.2,0.2-0.2c0.1-0.1,0.2-0.2,0.4-0.1c-0.3,0.4-0.7,0.6-1,0.9
		c-0.3,0.2-0.6,0.5-1,0.5c-0.3,0.1-0.6,0.2-0.9,0.3c0,0-0.1,0.1-0.1,0.1c-0.3,0-0.5,0.1-0.7,0.2c-0.1,0-0.1,0-0.2,0
		c-0.2,0-0.5,0-0.7-0.1c-0.6-0.2-1.2-0.1-1.8-0.1c-0.6,0-1.2,0.1-1.9,0c-0.3-0.4-0.2-0.5,0.1-0.6c0.3-0.1,0.6-0.1,1-0.1
		c0.5,0,1,0,1.4-0.5c0.2-0.2,0.6-0.2,0.8-0.3c0.1,0,0.2,0,0.3-0.1c0.2-0.1,1-1.6,1-1.8c-0.1-0.2,0-0.3,0.1-0.5
		c0.2-0.1,0.4-0.1,0.5,0c0.3,0.2,0.6,0.4,0.9,0c0.1-0.1,0.2-0.1,0.3-0.1c0.3,0.2,0.4,0.1,0.6-0.1c0.2-0.2,0.3-0.3,0.2-0.6
		c-0.1-0.3,0.1-0.5,0.3-0.6c0.5-0.1,1.1-0.3,1.6,0.1c0.1,0.1,0.3,0.1,0.4,0.2C161,43.6,160.9,43.8,161.1,44
		C161.1,43.9,161.1,43.9,161.1,44z"/>
	<path class="st2" d="M135.2,48.4c0,0-0.1-0.1-0.1-0.1c0-0.1-0.1-0.1-0.1-0.2c-0.1-0.1-0.2-0.2-0.4-0.2c-0.3-0.1-0.6-0.2-0.7-0.5
		c0.1-0.2,0.3-0.3,0.4-0.4c0.2-0.1,0.4,0,0.4,0.3c0,0.1-0.1,0-0.1,0.1c0.1,0,0,0,0,0s0,0,0,0c0.2-0.3,0.6-0.4,0.9-0.5
		c0.7-0.2,0.9-0.7,0.7-1.3c0-0.2-0.3-0.3-0.1-0.5c0.2-0.1,0.3-0.2,0.5,0c0.2,0.2,0.3-0.1,0.4-0.2c0.2-0.3,0.4-0.3,0.6-0.1
		c1.1,0.1,2.1,0,3.2,0.1c0.2,0,0.5,0,0.7,0c0.3,0.2,0.4,0.4,0.3,0.7c-0.1,0.3-0.5,0.4-0.8,0.4c-0.4,0-0.4,0.1-0.5,0.4
		c-0.2,0.7-0.6,1-1.3,1c-0.2,0-0.4,0.1-0.6,0.2c-0.1,0.2-0.3,0.3-0.5,0.3c-0.3,0-0.5,0.1-0.7,0.3c-0.3,0.2-0.7-0.1-0.9,0.2
		c0,0.1,0,0.2-0.1,0.2c-0.2,0-0.4-0.1-0.5-0.2c0-0.3-0.2,0-0.3,0C135.5,48.5,135.3,48.5,135.2,48.4z"/>
	<path class="st3" d="M155.4,0h-0.9c-0.1,0-0.2,0.1-0.2,0.2c0,0.1,0.1,0.2,0.2,0.2c0.2,0.1,0.5,0.2,0.8,0.2c-1,0.2-1.5,0.8-2.1,1.4
		c-0.2,0.2-0.1,0.4-0.4,0.5c-0.6,0.2-0.9,0.7-1.4,1c-0.2,0.1-0.3,0.3,0,0.4c0.8,0,1.7,0.1,2.5,0c0.3-0.2,0.2-0.3-0.1-0.3
		c-0.3-0.1-0.5-0.1-0.8-0.2c0.3,0,0.4-0.2,0.5-0.4c0.2-0.4,0.5-0.6,0.9-0.9c0.6-0.4,1.1-0.8,1.6-1.3c0.1-0.1,0.1-0.1,0.2-0.2
		c0.2-0.1,0.4-0.1,0.5,0c0.2,0.2,0,0.3-0.1,0.4c-0.1,0.2-0.3,0.4-0.1,0.6c0.5-0.3,0.8-0.6,0.8-1.1c-0.3-0.1-0.6-0.3-0.9-0.4
		C156.1,0.1,155.7,0.1,155.4,0z"/>
	<path class="st4" d="M134.4,47.3c-0.2,0.1-0.3,0.2-0.5,0.2c0,0-0.1,0-0.1-0.1c-0.2-0.1-0.3-0.2-0.4-0.3c-0.4-0.2-0.6-0.6-1-0.8
		c0,0-0.1-0.1-0.1-0.1c0-0.1,0-0.1,0-0.2c1-0.7,2.1-1.4,3-2.2c0.1-0.1,0.2-0.1,0.3-0.1c0.3,0,0.4,0.2,0.6,0.4
		c0.1,0.1,0.2,0.2,0.2,0.3c-0.3,0.6-0.6,1.2-1.3,1.5c-0.2,0.1-0.4,0-0.5-0.2c-0.2-0.2-0.4-0.4-0.6,0c-0.1,0.1-0.2,0.2-0.3,0.2
		c-0.4,0.2-0.4,0.4-0.1,0.6C133.8,46.8,134.2,46.9,134.4,47.3z"/>
	<path class="st5" d="M156,0.1c0.1,0.1,0.2,0,0.4,0.1C156.3,0.2,156.1,0.1,156,0.1z"/>
	<path class="st6" d="M157.3,0.6c-0.2,0.4-0.4,0.8-0.8,1.1c0,0-0.1,0-0.1,0c-0.5,0.7-1.1,1.3-1.5,2c0,0.1,0,0.2,0,0.3
		c0.1,0.1,0.2,0.2,0.4,0.1c0.2-0.3,0.3-0.8,0.7-1c0,0,0.1-0.1,0.1-0.1c0.1-0.3,0.4-0.5,0.6-0.8c0.3-0.3,0.5-0.8,0.9-1.1
		c0.1-0.1,0.2-0.2,0.2-0.3C157.6,0.7,157.5,0.6,157.3,0.6z"/>
	<path class="st7" d="M137.2,0c-0.4,0.1-0.7,0.1-1.1,0.1c-0.3,0.1-0.6,0.2-0.9,0.3c0,0,0.1,0,0.1,0c0.9-0.3,1.8-0.5,2.7-0.4
		c0.6,0,1.2,0.1,1.8,0c0.7,0,1.4,0,2.1,0c0.2,0,0.5,0,0.7,0c0.1,0,0.3,0,0.4,0H137.2z"/>
	<path class="st8" d="M158,0.9c-0.1-0.1-0.2-0.1-0.3-0.2c-0.1,0.1-0.1,0.2-0.2,0.3c0,0,0.1,0.1,0.1,0.1c0.5,0,0.8,0.4,1.2,0.7
		c0.2,0.2,0.4,0.4,0.7,0.6c0.2,0.1,0.3,0.3,0.4,0.5c0.2,0.2,0.3,0.5,0.7,0.7C159.9,2.5,159,1.5,158,0.9z"/>
	<path class="st9" d="M134.7,0.7c-0.6,0.3-1.2,0.7-1.8,1.1c-0.2,0.2-0.5,0.4-0.7,0.5c0,0,0,0.1,0,0.1c0.1,0,0.2,0,0.3-0.1
		c0.4-0.3,0.8-0.8,1.2-1.1c0.1-0.1,0.3-0.2,0.5-0.3c0.2-0.2,0.5-0.2,0.7-0.4C134.8,0.6,134.7,0.6,134.7,0.7z"/>
	<path class="st10" d="M159.4,46.7c-0.1,0-0.3,0.1-0.4,0.1c0,0,0,0,0,0c0.3-0.4,0.7-0.8,1-1.2c0.1-0.1,0.2-0.2,0.3,0.1
		C160,46.1,159.7,46.4,159.4,46.7z"/>
	<path class="st11" d="M132.3,46.4c0.3-0.1,0.4,0.1,0.6,0.3c0.2,0.2,0.3,0.4,0.5,0.4c0.1,0.1,0.1,0.2,0.1,0.3c0,0,0,0.1-0.1,0.1
		C132.9,47.2,132.6,46.8,132.3,46.4z"/>
	<path class="st12" d="M133.9,47.4c0,0,0,0.1,0,0.1c0.2,0.2,0.5,0.4,0.8,0.3c0,0.2,0.2,0.1,0.3,0.2c0,0.1,0,0.2,0,0.3
		c-0.6-0.2-1.2-0.5-1.6-0.9c0,0,0,0,0,0C133.6,47.3,133.8,47.3,133.9,47.4z"/>
	<path class="st13" d="M161.4,42.8c0,0.1,0,0.1,0,0.2c-0.2,0.3,0,0.7-0.3,1c0,0,0,0,0,0c-0.1-0.1-0.1-0.2-0.2-0.3
		c0-0.1,0-0.1,0.1-0.2c0.1-0.2,0-0.3,0-0.5c0-0.1,0-0.2,0.1-0.3c0.1,0,0.1,0,0.2,0C161.4,42.7,161.4,42.8,161.4,42.8z"/>
	<path class="st14" d="M157.4,48c0,0,0,0.1,0,0.1c-0.2,0.1-0.4,0.2-0.6,0.2c-0.1,0-0.2,0-0.3,0C156.6,48,157.1,48.2,157.4,48z"/>
	<path class="st15" d="M132.2,46.1c0,0,0,0.1,0,0.1c-0.2-0.1-0.4-0.3-0.5-0.6c0,0,0,0,0,0C132,45.7,132.3,45.7,132.2,46.1z"/>
	<path class="st13" d="M160.9,43.6c-0.2,0.1-0.3,0-0.5-0.1c-0.5-0.4-1.1-0.2-1.6-0.1c-0.3,0-0.4,0.3-0.2,0.5
		c0.3,0.4,0.1,0.5-0.2,0.6c-0.1,0-0.4,0.1-0.1,0.3c-0.2,0.1-0.5,0.2-0.6,0c-0.2-0.2-0.3-0.1-0.4,0c-0.3,0.6-0.6,0.2-0.9,0
		c-0.2-0.1-0.3-0.2-0.5-0.1c-0.2,0.2-0.1,0.2,0,0.4c0.2,0.3-0.1,0.6-0.3,0.7c-0.3,0.2-0.4,0.4-0.4,0.6c0,0.4-0.2,0.5-0.6,0.6
		c-0.4,0.1-1,0.1-1.2,0.6c-0.1,0.2-0.3,0.2-0.5,0.2c-0.5-0.1-1.1,0.1-1.6,0.1c-0.3,0-0.3,0.2-0.4,0.4c-0.3,0.3-0.7,0.1-1,0.2
		c-0.4,0-0.9,0-1.3,0c-0.4-0.4-1-0.4-1.5-0.7c-0.1-0.1-0.2-0.1-0.2-0.2c0-0.1,0.1-0.2,0.3-0.2c0.5-0.2,1-0.2,1.4-0.1
		c0.2,0,0.3,0,0.5,0c0.5,0.2,0.9,0.1,1.4,0.1c0.2,0,0.5-0.1,0.7,0c0.3,0.1,0.4-0.1,0.4-0.3c0.3-0.9,0.4-1,1.4-1c0.1,0,0.1,0.1,0.2,0
		c0.4-0.9,1.2-0.7,1.9-0.7c0,0,0.1,0,0.1,0c0.1,0,0.1-0.1,0-0.1c0,0-0.1,0-0.1,0c-0.1-0.1-0.2-0.2-0.3-0.3c0.2-0.4,0.7-0.4,1-0.6
		c0.3,0,0.5-0.2,0.7-0.3c0.2,0,0.3-0.2,0.3-0.4c0-0.1,0.1-0.1,0.1-0.2c0.1-0.2,0.1-0.3,0.2-0.5c0,0,0.1-0.1,0.1-0.1
		c0.1,0,0.1-0.1,0.2-0.1c0.1,0,0.1,0.1,0.1,0.1c0,0.1,0,0.3,0,0.4c0-0.5,0.4-0.7,0.9-0.8c0.8-0.1,1.6-0.1,2.2,0.9
		C160.7,43.2,160.9,43.3,160.9,43.6C160.9,43.6,160.9,43.6,160.9,43.6z"/>
	<path class="st16" d="M155.5,48.6c-0.2,0.2-0.5,0.2-0.8,0.1c-0.1,0.1-0.3,0-0.4,0c-3.4,0-6.9,0-10.3,0c-0.2,0-0.3,0.1-0.5-0.1
		c0.2-0.2,0.4-0.2,0.7-0.2c0.8,0,1.5,0,2.3,0c0.2,0,0.4,0,0.6-0.1c1.9,0,3.8,0,5.7,0c0.7,0,1.4-0.1,2,0.1
		C155.1,48.5,155.3,48.4,155.5,48.6z"/>
	<path class="st17" d="M154.9,48.5c-2.6,0-5.2,0-7.7,0c-0.4,0.1-0.8,0-1.2,0c-0.2-0.1-0.5,0.1-0.5-0.3c0.3-0.2,0.5-0.1,0.8-0.1
		c0.7,0.1,1.5-0.2,2.2,0.2c0.8,0,1.7,0,2.5,0c1,0,1.9,0,2.9,0C154.2,48.3,154.6,48.2,154.9,48.5z"/>
	<path class="st14" d="M156.5,48.4c-0.2,0.2-0.5,0.2-0.8,0.2C155.9,48.3,156.2,48.4,156.5,48.4z"/>
	<path class="st18" d="M159,46.8c0,0.3-0.3,0.3-0.5,0.5C158.5,46.9,158.8,46.9,159,46.8C159,46.8,159,46.8,159,46.8z"/>
	<path class="st19" d="M161,43.6c0,0.1,0.1,0.2,0.1,0.3c-0.1,0-0.1,0.1-0.2,0.1c-0.1-0.1,0-0.3-0.1-0.5c0,0,0,0,0,0
		C160.9,43.6,161,43.6,161,43.6z"/>
	<path class="st20" d="M160.7,45c-0.1,0-0.2,0-0.2-0.2c0,0,0.1-0.1,0.1-0.1C160.7,44.8,160.6,44.9,160.7,45
		C160.7,45,160.7,45,160.7,45z"/>
	<path class="st21" d="M137.5,48.3c0-0.4,0.3-0.4,0.6-0.4c0.3,0,0.5,0,0.6-0.3c0.2-0.3,0.4-0.2,0.7-0.2c0.6,0,1-0.4,1.2-1.3
		c0.1-0.2,0.1-0.3,0.3-0.1c0.2,0.2,0.3,0,0.4,0c0.6-0.1,0.5-0.4,0.4-0.8c0.2-0.2,0.5-0.1,0.8-0.2c0.7,0,1.3,0,2,0
		c0.3,0.2,0.8,0.3,0.8,0.8c0,0.3,0,0.6-0.4,0.6c-0.1,0-0.3,0-0.5,0c-0.3,0-0.5,0.1-0.6,0.4c-0.1,0.4-0.4,0.6-0.9,0.4
		c0.3,0.2,0.4,0.4,0.6,0.5c0.2,0.2,0.3,0.4,0,0.6c-1.6,0.1-3.2,0-4.8,0C138.3,48.4,137.9,48.6,137.5,48.3z"/>
	<path class="st22" d="M134.4,47.3c-0.3-0.2-0.6-0.3-0.9-0.5c-0.2-0.1-0.4-0.2-0.3-0.6c0.1-0.3,0.1-0.5,0.5-0.3
		c0.1,0,0.1-0.1,0.2-0.2c0.3-0.5,0.3-0.5,0.8-0.1c0.1,0.1,0.1,0.4,0.3,0.2c0.2-0.1,0.6-0.1,0.7-0.4c0.1-0.3,0.2-0.6,0.6-0.7
		c0.1,0,0.1-0.3,0.1-0.4c0.2-0.1,0.4-0.1,0.5,0c0.5,0.1,1,0.2,1.5,0.2c5.1,0,10.3,0,15.4,0c0.3,0,0.7-0.1,1,0.1
		c0.1,0.1,0.1,0.1,0,0.2c-0.1,0.1-0.2,0.2-0.4,0.2c-1.8,0.1-3.6,0-5.4,0c-2.6,0-5.1-0.1-7.7,0c-1,0-1.9,0-2.9,0
		c-0.2,0-0.5,0-0.7-0.1c-0.1-0.2-0.1-0.1-0.2,0.1c-0.1,0.3-0.4,0.4-0.6,0.5c-0.1,0-0.1-0.1-0.1-0.2c0-0.3-0.2-0.1-0.3-0.1
		c-0.2,0.1-0.1,0.1,0,0.2c0.4,0.9,0.1,1.4-0.8,1.7c-0.3,0.1-0.6,0.3-0.9,0.4v0C134.7,47.3,134.6,47.1,134.4,47.3z"/>
	<path class="st23" d="M137.5,48.3c2,0,4,0,6,0c0.6-0.1,1.2-0.2,1.8,0c0.1,0.2,0.4,0,0.5,0.2c-0.1,0-0.1,0.1-0.2,0.1
		c-2.3,0-4.5,0.2-6.8,0.1c-0.8,0-1.6,0.1-2.4-0.2C136.7,48,137.2,48.4,137.5,48.3z"/>
	<path class="st24" d="M141.1,44.9c2.6,0,5.2,0,7.7,0c0,0.1,0,0.2-0.1,0.3c-1.3,0-2.6,0-3.9,0c-0.1,0-0.1,0-0.1-0.1
		c-0.9,0-1.9,0-2.8,0c-0.3,0-0.5,0-0.8,0C140.9,45,141,44.9,141.1,44.9z"/>
	<path class="st25" d="M141.1,44.9c0,0.1-0.1,0.1-0.1,0.2c-1,0-1.9,0-2.9,0c-0.2,0-0.4,0.1-0.5-0.2
		C138.7,44.9,139.9,44.9,141.1,44.9z"/>
	<path class="st26" d="M136.4,48.5c0.8,0,1.6,0,2.4,0c0.1,0.1,0.2,0.1,0.1,0.3c-0.8,0.1-1.6,0-2.4-0.1
		C136.5,48.6,136.4,48.6,136.4,48.5z"/>
	<path class="st27" d="M135.9,48.5c-0.1,0-0.1,0-0.2,0c0.1-0.1,0.1-0.2,0.3-0.2c0,0,0.1,0.1,0.1,0.1C136.1,48.5,136,48.5,135.9,48.5
		z"/>
	<path class="st22" d="M134.7,47.5c-0.1,0.1-0.2,0.1-0.4,0.1C134.4,47.4,134.6,47.4,134.7,47.5L134.7,47.5z"/>
	<path class="st28" d="M135,48c-0.1-0.1-0.4,0.2-0.3-0.2C134.8,47.9,134.9,48,135,48z"/>
	<path class="st29" d="M156.6,1.7c-0.5,0.8-1.2,1.4-1.6,2.2c-0.2,0.2-0.4,0.2-0.6,0.1c-0.1-0.1-0.3-0.1-0.3-0.3
		c-0.4-0.2-0.9-0.1-1.3-0.4c0.5-0.1,0.8-0.4,0.9-0.8c0.1-0.2,0.3-0.3,0.5-0.4c0.5-0.2,0.8-0.9,1.4-1c0.1,0,0.3-0.4,0.5-0.6
		c0.2-0.1,0.3-0.2,0.6-0.1c0.4,0.1,0.5,0.2,0.2,0.6C156.8,1.2,156.5,1.4,156.6,1.7z"/>
	<path class="st30" d="M155.1,0h-1.4c0,0-0.1,0.1-0.1,0.1c-0.1,0.2,0.2,0.3,0.3,0.4c-0.4,0.3-0.8,0.4-1.1,0.7
		c-0.6,0.7-1.3,1.3-2.1,1.8c-0.2,0.2-0.6,0.3-0.4,0.7c0.1,0.3,0.5,0.2,0.8,0.1c0.1,0,0.1,0,0.1-0.1c0.3-0.3,0.7-0.6,1.1-0.9
		c0.5-0.3,0.8-0.7,1.2-1.1c0.3-0.4,0.7-0.7,1.2-0.9c0.3-0.1,0.5-0.2,0.8-0.4c-0.4,0-0.7-0.2-1.1-0.3C154.6,0,154.9,0,155.1,0z"/>
	<path class="st31" d="M154.1,3.8c-0.9,0-1.9,0-2.8,0c-0.3,0-0.6,0-0.9-0.1c0,0-0.1-0.1-0.1-0.1c0.2-0.1,0.3-0.3,0.5-0.4
		c0.4-0.3,0.8-0.5,1.1-0.9c0.6-0.6,1.2-1.2,1.9-1.6c0.2-0.1,0.2-0.2,0.1-0.3c-0.1-0.1-0.2-0.1-0.2-0.2c0-0.1,0.2-0.2,0.3-0.2
		c0.1,0,0.2,0,0.3,0h-1.2c0,0,0,0,0,0c-0.1,0.1-0.3,0.1-0.1,0.3c0.3,0.3,0.1,0.4-0.1,0.4c-0.9,0.1-1.2,1.1-2,1.4
		c-0.5,0.2-0.6,0.7-0.9,1.1c-0.3,0.5-0.3,0.5,0.2,0.8c1.2,0,2.5,0,3.7,0c0.2,0,0.4,0,0.5-0.2C154.3,3.7,154.2,3.8,154.1,3.8z"/>
	<path class="st32" d="M155.9,0.1c0.1,0.2,0.4,0.1,0.6,0.1c0,0,0,0,0,0C156.3,0.2,156.1,0.1,155.9,0.1z"/>
	<path class="st33" d="M160.5,3.4c-0.3-0.4-0.6-0.8-0.9-1.1c-0.1,0-0.2,0.1-0.1,0.2c0.2,0.3,0.3,0.6,0.6,0.8
		c0.3,0.3,0.3,0.7,0.6,0.9c0.1,0.5,0.5,1,0.4,1.6c0.1,0.4-0.2,0.9,0.1,1.3c0.2,0.4,0.3,0.7,0.2,1.1c0,0.2-0.2,0.4-0.1,0.7
		c0.1,0.2,0.1,0.4,0.3,0.4c0.2,0,0.1-0.3,0.2-0.3c0.1-1.9-0.1-3.7-1-5.4C160.6,3.6,160.5,3.5,160.5,3.4z"/>
	<path class="st34" d="M134.2,38c0,1,0,2,0,3c0,0.4,0,0.9,0.3,1.2c0.3,0.5,0.7,1,0.9,1.6c-0.9,0.9-2,1.5-3,2.3c-0.1,0.1-0.2,0-0.3,0
		c0-0.3-0.3-0.3-0.4-0.5c-0.3-0.8-0.9-1.4-0.9-2.3c0.3-0.1,0.3,0,0.4,0.2c0.1,0.2,0,0.5,0.4,0.4c0.3,0,0.4-0.2,0.5-0.4
		c0-0.1,0.1-0.2,0.1-0.3c0.1-0.4,0.4-0.6,0.7-0.3c0.4,0.3,0.6,0.1,0.8-0.3c0.2-0.4,0.4-0.7,0.2-1.2c-0.1-0.3,0-0.7,0-1.1
		c0-0.7,0-1.3,0.1-2c0-0.2,0-0.4,0.1-0.5C134.1,38,134.2,38,134.2,38z"/>
	<path class="st22" d="M133.9,47.4c-0.1,0-0.3,0-0.4,0c0-0.1,0-0.2,0-0.3C133.6,47.1,133.8,47.3,133.9,47.4z"/>
	<path class="st35" d="M150.1,0c-0.1,0-0.1,0.1-0.1,0.2c-0.2,0.3-0.5,0.5-0.8,0.7c-1,0.6-1.9,1.4-2.6,2.3c-0.1,0.2-0.2,0.3-0.5,0.4
		c-0.3,0-0.4,0.3,0,0.4c0.8,0.1,1.6,0,2.4,0c0.4,0,0.7,0.1,1.1-0.1c0.1-0.3-0.2-0.3-0.4-0.3c-0.4,0-0.8,0-1.1,0c-0.2,0-0.3,0-0.5,0
		c-0.1,0-0.2,0.1-0.3-0.1c-0.1-0.1,0-0.2,0.1-0.3c0.2-0.2,0.4-0.2,0.6-0.3c0.2-0.1,0.5-0.1,0.6-0.4c0.3-0.7,0.8-1.2,1.5-1.5
		c0.2-0.1,0.4-0.2,0.4-0.4c0-0.4,0.2-0.4,0.5-0.5c0.3,0,0.6-0.1,0.8,0c0.4-0.1,0.8-0.1,1.2-0.1H150.1z"/>
	<path class="st36" d="M138.9,48.8c0-0.1-0.1-0.2-0.1-0.3c2.4,0,4.7,0,7.1,0c0.4,0,0.8,0,1.3,0c-0.3,0.2-0.6,0.1-0.9,0.1
		c-0.8,0-1.7,0-2.5,0.1c3.7,0,7.4,0,11.1,0c-0.2,0.1-0.3,0.1-0.5,0.1c-5,0-10,0-15,0C139.2,48.8,139,48.8,138.9,48.8z"/>
	<path class="st37" d="M134,40.5c0.1,0.5-0.1,1,0.1,1.5c0.1,0.2-0.2,0.5-0.3,0.8c0,0-0.1,0.1-0.1,0.1c-0.3,0.5-0.4,0.5-0.8,0.2
		c-0.4-0.3-0.6-0.1-0.6,0.2c-0.1,0.7-0.6,0.7-1.1,0.8c-0.2-0.2,0.1-0.7-0.4-0.8c-0.3-0.5-0.1-1.2-0.2-1.7c0.3,0,0.3,0.3,0.4,0.5
		c0.1-0.4,0.3-0.8,0.9-0.7c0.1,0,0.2,0,0.3-0.1c0.2-0.3,0.5-0.4,0.8-0.6C133.3,40.4,133.6,40.4,134,40.5z"/>
	<path class="st38" d="M130.4,7.6c0-0.3,0.1-0.7,0.1-1c0.3,0.1,0.2,0.4,0.3,0.6c0,0.3-0.2,0.7,0.2,0.8c0.3,0.1,0.4-0.3,0.6-0.4
		c0.7-0.5,1.3-1.1,2-1.6c0.2-0.2,0.4-0.4,0.4-0.7c0-0.5,0.3-0.6,0.7-0.7c0.3,0,0.6-0.1,0.9-0.3c0,0,0.1-0.1,0.1-0.1
		c0.6-0.5,1.4-0.6,1.7-1.4c0.1-0.1,0.2-0.1,0.4-0.2c0.5-0.1,1-0.3,1-1c0-0.2,0.2-0.4,0.4-0.5c0.5-0.2,0.9-0.6,1.3-0.8
		c0.2-0.1,0.5-0.2,0.7,0c0.1,0.1,0,0.2-0.1,0.3c-0.9,0.8-1.7,1.8-2.7,2.5c-0.1,0.1-0.2,0.1-0.2,0.1c-0.4,0-0.6,0.3-0.8,0.6
		c-0.2,0.2-0.6,0.2-0.7,0.4c-0.6,0.3-1,0.8-1.5,1.3c-0.5,0.2-0.5,0.7-0.6,1.1c0,0-0.1,0.1-0.1,0.1c-1.2,0.5-2,1.3-2.8,2.3
		c-0.1,0.1-0.2,0.3-0.3,0.4c-0.2,0.1-0.3,0.2-0.5,0.1c-0.2-0.1-0.2-0.3-0.2-0.5C130.5,8.5,130.4,8.1,130.4,7.6z"/>
	<path class="st39" d="M137.2,0c-0.4,0.1-0.7,0.1-1.1,0.1c-0.3,0.1-0.5,0.2-0.8,0.3c0.1,0.1,0.2,0.1,0.3,0.2
		c-0.3,0.6-0.7,1.1-1.4,1.3c-0.1,0-0.2,0.1-0.3,0.3c-0.3,0.5-0.9,0.7-1.2,1.2c-0.4,0.6-1,0.9-1.5,1.4c-0.1-0.1-0.1-0.3-0.2-0.3
		c-0.2,0.5-0.5,1-0.5,1.6c-0.1,0.3,0,0.5,0.1,0.8c0.3,0.3,0.4-0.1,0.4-0.3c0.1-0.3,0.1-0.8,0.3-0.8c0.6-0.1,0.8-0.5,1-0.9
		c0,0,0.1-0.1,0.1-0.1c0.6-0.2,1-0.6,1.5-1.1c0.4-0.4,1-0.6,1.3-0.9c0.3-0.5,1-0.6,1.2-1.2c0.1-0.3,0.7-0.4,0.9-0.8
		c0-0.1,0.2,0,0.3-0.1c0.1,0,0.2-0.1,0.2-0.2c0-0.1-0.1-0.2-0.2-0.2c-0.3-0.1-0.6,0.1-0.9,0c0.4,0,0.7-0.2,1.1,0.1
		c0.1,0.1,0.3,0.1,0.4-0.1c0-0.1,0-0.1,0-0.1H137.2z"/>
	<path class="st40" d="M130.6,5.9c0.1,0.3,0.2,0.5,0.1,0.8c0.2,0.2,0.3,0,0.3-0.2c0.1-0.6,0.3-1,1-1c0.1,0,0.2-0.1,0.2-0.1
		c0.4-0.7,1.3-0.9,1.7-1.6c0-0.1,0.1-0.1,0.2-0.2c0.8-0.2,1.2-0.8,1.9-1.1c0.4-0.2,0.8-0.5,0.9-0.9c0.2-0.4,0.6-0.7,0.8-1.1
		c0.1-0.2,0.4-0.2,0.6-0.3c0.3-0.1,0.6-0.1,0.9,0c0.2,0.2,0,0.3-0.1,0.3c-0.9,0.2-1.2,1-1.7,1.6c-0.4,0.4-0.9,0.7-1.3,1
		c-0.2,0.1-0.4,0.2-0.4,0.4c0,0.1-0.1,0.2-0.2,0.2c-0.6,0.1-0.9,0.7-1.4,0.9c-0.2,0.1-0.3,0.2-0.4,0.4c-0.4,0.7-1,1.1-1.7,1.3
		c-0.2,0-0.3,0.3-0.4,0.5c-0.1,0.2-0.3,0.4-0.5,0.6c-0.3,0.3-0.5,0.2-0.6-0.2c0-0.2,0.1-0.5-0.1-0.7C130.5,6.4,130.4,6.1,130.6,5.9z
		"/>
	<path class="st41" d="M135.7,0.4c-0.1,0-0.2,0-0.3,0c-0.3,0.1-0.5,0.2-0.8,0.3c-0.6,0.3-1.2,0.7-1.8,1.1c0,0,0,0-0.1,0
		c-0.1,0.1-0.3,0.3-0.4,0.4c0,0.6-0.1,0.7-0.7,0.8c-0.3,0.4-0.5,0.8-0.7,1.2c0,0.2,0,0.3,0,0.5c0,0.2,0.2,0.3,0.2,0.1
		c0.3-0.6,1-0.7,1.4-1.3c0.1-0.2,0.3-0.6,0.5-0.7c0.4-0.1,0.6-0.5,0.8-0.7c0.1-0.1,0.1-0.2,0.2-0.2c0.8-0.1,1.1-0.8,1.5-1.3
		C135.9,0.5,135.8,0.4,135.7,0.4z"/>
	<path class="st42" d="M134.4,6.6c0,0,0.1,0,0.1,0c0.1,0,0.1,0,0.2,0.1c0,0.9,0,1.7,0,2.6c-0.1,0.3,0,0.6-0.2,0.9
		c-0.3-0.1-0.5-0.2-0.6,0.2c-0.1,0.4-0.5,0.4-0.8,0.6c-0.2,0.1-0.4,0.1-0.6,0.2c-0.6,0.5-1.2,1.1-1.9,1.6c-0.1,0-0.1,0-0.1,0
		c0-0.6,0-1.2,0-1.8c0.2,0,0.2,0.1,0.2,0.2c0.1,0.2,0,0.4,0.2,0.5c0.2,0.1,0.4-0.1,0.5-0.3c0.5-0.5,1-0.9,1.4-1.5
		c0.1-0.1,0.2-0.3,0.4-0.3c0.9-0.2,0.8-0.9,1-1.5c0-0.4,0.1-0.7,0.1-1.1C134.2,6.8,134.3,6.7,134.4,6.6z"/>
	<path class="st43" d="M130.5,11.2c0-0.1-0.1-0.2-0.1-0.2c0-0.7,0-1.4,0-2.2c0.3,0.4,0.2,0.8,0.3,1.2c0.1,0.2,0,0.4,0.1,0.5
		c0,0,0.1,0,0.1,0c0.2-0.9,0.9-1.2,1.6-1.5c0.7-0.3,1.3-0.7,1.4-1.6c0.1-0.2,0.1-0.4,0.4-0.4c0,0.4-0.2,0.7-0.1,1.1
		c-0.1,0.3-0.3,0.6-0.5,0.9c-0.1,0.3-0.4,0.4-0.7,0.4c-0.5,0.1-0.8,0.3-0.9,0.9C132.2,10.9,131,11.5,130.5,11.2z"/>
	<path class="st44" d="M134.4,6.9c-0.1,0.2-0.2,0.3-0.3,0.5c-1,0.5-1.6,1.4-2.5,2c-0.3,0.2-0.6,0.4-0.9,0.7
		c-0.2-0.2-0.1-0.5-0.1-0.8c0-0.2,0.1-0.4-0.1-0.6c0-0.4,0-0.8,0-1.1c0.1,0.4,0.2,0.8,0.2,1.2c0,0.2-0.1,0.4,0.2,0.5
		c0.2,0,0.4,0,0.5-0.2c0.3-0.5,0.8-0.9,1.2-1.4c0.5-0.5,1.1-0.9,1.8-1.2c0,0,0.1,0,0.1,0.1C134.4,6.7,134.4,6.8,134.4,6.9z"/>
	<path class="st45" d="M132.4,2.3c0.5,0.4,0,0.6-0.1,0.8c-0.2,0.4-0.4,0.1-0.5,0c0-0.3,0.4-0.4,0.4-0.7
		C132.3,2.4,132.3,2.3,132.4,2.3z"/>
	<path class="st46" d="M142.6,0c0,0.1,0.2,0.1,0.3,0.1c0.1,0,0.2,0,0.4,0c-0.4,0.2-0.9,0-1.1,0.4c-0.1,0.2-0.3,0.3-0.6,0.4
		c-0.5,0.2-0.8,0.6-1.1,1c-0.2,0.3-0.3,0.5-0.6,0.6c-0.3,0.1-0.5,0.3-0.7,0.5c-0.3,0.4-0.7,0.4-1.2,0.4c-0.2,0-0.4,0.1-0.6,0.2
		c-0.2,0.2-0.6,0.1-0.8,0.4c0.1,0.1,0.2,0.1,0.4,0.1c0.6-0.2,1.3-0.1,2-0.2c0.3-0.1,0.7,0,1-0.2c0.1-0.1,0.2-0.4,0.3-0.4
		c0.6-0.1,0.9-0.5,1.3-1c0.1-0.2,0.3-0.3,0.5-0.4c0.9-0.3,1.4-1,2-1.6c0.1-0.1,0.3-0.3,0.1-0.5H142.6z"/>
	<path class="st47" d="M147.5,0c0.3,0.1,0.6,0.1,0.8,0.2c-0.3,0.2-0.6,0.2-0.8,0.3c-0.7,0.3-0.9,1.3-1.7,1.5c-0.1,0-0.1,0.1-0.1,0.2
		c-0.5,1.1-1.4,1.3-2.4,1.4c-0.2,0-0.4,0-0.5,0c-0.5,0-0.5,0-0.6,0.3c1,0.2,2.1,0.1,3.1,0.1c0.3,0,0.3-0.3,0.5-0.5
		c0.4-0.3,1-0.6,1.3-1.1c0.3-0.6,0.7-1.2,1.5-1.3c0.2,0,0.3-0.1,0.4-0.3c0.3-0.5,0.7-0.7,1.2-0.9H147.5z"/>
	<path class="st48" d="M144.2,0c0.1,0,0.2,0,0.2,0.1c0.2,0.1,0.5-0.1,0.6,0.2c-0.2,0.1-0.5,0.3-0.7,0.4c-0.6,0.4-0.9,1.1-1.5,1.4
		c-0.3,0.2-0.6,0.3-0.8,0.6c-0.4,0.6-1,0.8-1.6,0.8c-0.2,0-0.4,0-0.6,0.1c-0.3,0.2-0.6,0-0.9,0.2c0,0.1,0.1,0.1,0.2,0.1
		c0.9,0.1,1.9,0.1,2.8,0c0.1,0,0.1-0.1,0.2-0.1c0.2-0.2,0.5-0.1,0.7-0.1c0-0.1,0-0.2-0.1-0.2c-0.1-0.1-0.3,0-0.5,0
		c0.5-0.1,0.6-0.5,0.9-0.7c0.7-0.5,1.6-0.9,2.1-1.7c0.1-0.1,0.3-0.2,0.4-0.3c0.3-0.2,0.7-0.5,0.8-0.8H144.2z"/>
	<path class="st49" d="M146.3,0c-1.3,1.3-2.9,2.3-4.3,3.6h0.6c0.7-0.1,1.2-0.6,1.8-0.8c0.1,0,0.1-0.1,0.1-0.2c0.4-0.8,1-1.5,1.9-1.8
		c0.4-0.2,0.7-0.4,0.7-0.9H146.3z"/>
	<path class="st50" d="M157.6,1c0.4-0.2,0.6,0.1,0.8,0.3c0.2,0.1,0.3,0.3,0.4,0.4c0.1,0.4-0.3,0.6-0.5,0.9c-0.1,0.2-0.3,0-0.5-0.2
		c-0.2,0.5-0.3,0.8-0.7,1c-0.2,0.1-0.4,0.3-0.3,0.5c0.1,0.5-0.2,0.6-0.6,0.6c-0.1,0-0.2,0-0.3-0.1c-0.8-0.4-0.8-0.6,0-1.4
		c0,0,0-0.1,0-0.1c0.2-0.3,0.5-0.5,0.7-0.8C157,1.8,157.1,1.3,157.6,1z"/>
	<path class="st51" d="M156,3.1c0,0.1-0.1,0.2-0.1,0.2c-0.5,0.6-0.5,0.6,0.2,1c0,0,0,0-0.1,0.1c-0.1,0.1-0.2,0.1-0.3,0
		c-0.1,0-0.1,0-0.1-0.1c0-0.1-0.1-0.2-0.2-0.2C155.3,3.6,155.5,3.2,156,3.1z"/>
	<path class="st52" d="M157.6,1c-0.3,0.3-0.5,0.8-0.9,1.1c-0.1,0-0.1,0-0.1,0c0.4-0.3,0.5-0.8,0.9-1.1C157.5,1,157.5,1,157.6,1z"/>
	<path class="st53" d="M156.5,2.2c0,0,0.1,0,0.1,0c-0.1,0.4-0.4,0.6-0.7,0.8C156,2.6,156.4,2.5,156.5,2.2z"/>
	<path class="st44" d="M142.9,0h-1.1c-0.2,0.2-0.4,0.2-0.6,0.3c-0.4,0.5-0.9,0.8-1.4,1.3c-0.5,0.5-1,1-1.6,1.4
		c-0.3,0.2-0.9,0.1-0.9,0.7c0.2,0,0.5-0.1,0.7-0.1c0.2-0.2,0.5,0.1,0.7-0.2c0.2-0.5,0.6-0.6,1-0.8c0.2-0.1,0.4-0.3,0.5-0.5
		c0.3-0.5,0.5-1,1.2-1.1c0.2,0,0.3-0.2,0.4-0.3c0.2-0.3,0.5-0.5,0.9-0.4C142.9,0.3,143,0.2,142.9,0C142.9,0,142.9,0,142.9,0z"/>
	<path class="st54" d="M139.7,0c0.1,0.2,0.3,0.1,0.4,0.2c-0.8,0.4-1.5,0.9-2,1.6c-0.1,0.2-0.3,0.3-0.4,0.5c-0.1,0.1-0.3,0.3-0.1,0.5
		c0.1,0,0.2-0.1,0.3-0.1c0.5-0.1,0.8-0.4,0.8-0.9c0-0.3,0.3-0.6,0.5-0.6c0.2,0,0.3-0.2,0.5-0.3c0.5-0.2,0.8-0.7,1.4-0.6
		c0.5,0,0.7-0.1,0.7-0.3H139.7z"/>
	<path class="st55" d="M140.2,0h-2.1c0,0,0.1,0.1,0,0.1c-0.1,0.1-0.2,0-0.2,0c-0.1,0.1-0.2,0-0.2,0.1c0,0.1,0.1,0.1,0.2,0.1
		c0.1,0.2,0.3,0,0.5,0.1c0.3-0.2,0.7-0.1,1-0.1c0.4,0.1,0.7,0.1,1-0.1C140.4,0.1,140.3,0,140.2,0z"/>
	<path class="st56" d="M156.3,4.3c0.2,0,0.6,0.1,0.4-0.4c-0.1-0.2,0.1-0.4,0.3-0.5c0.3-0.2,0.7-0.5,0.7-1c0-0.1,0.1-0.3,0.3-0.2
		c0.2,0,0.1,0.1,0.1,0.3c0,0.2,0.2,0.2,0.2,0.1c0.1-0.3,0.4-0.5,0.5-0.8c0.2,0.2,0.5,0.4,0.7,0.6c0.1,0.4,0.2,0.7,0.6,0.9
		c0.2,0.2,0,0.4,0,0.7c-0.1,0.3-0.2,0.5-0.5,0.4c-0.3,0.5-1.2,0.2-1.3,1c0,0.1-0.1,0.1-0.2,0.2c-0.4,0.5-0.4,0.4-0.6-0.1
		c-0.1-0.1-0.1,0-0.2,0c-0.4,0-0.5-0.5-0.8-0.6c0,0-0.1-0.1-0.1-0.1C156.3,4.6,156.2,4.5,156.3,4.3z"/>
	<path class="st57" d="M161.3,38c0,1.1,0,2.3,0,3.4c-0.2,0.4,0,0.8-0.1,1.3c-0.1,0-0.1,0.1-0.1,0.2c0.1,0.2,0.1,0.4,0,0.6
		c0,0-0.1,0.1-0.1,0.1c0,0-0.1,0-0.1,0c-0.4-0.4-0.6-0.9-1.1-1.2c-0.8-0.5-1.8-0.2-2.2,0.7c0,0.1,0,0.3-0.2,0.2
		c-0.1-0.1-0.1-0.1,0-0.3c0.1-0.1,0.1-0.3,0.2-0.5c0,0,0-0.1,0-0.1c0-0.1,0.1-0.1,0.1-0.1c0.2-0.3,0.3-0.6,0.4-1
		c0.2-0.8,0.2-0.8,0.8-0.4c0.6-0.6,1.5-0.5,2.2-0.9c-0.1-0.4,0-1,0-1.5C161.1,38.3,161,38.1,161.3,38z"/>
	<path class="st58" d="M161.2,42.7c0.1-0.4-0.1-0.9,0.1-1.3c0,0.5,0,0.9,0,1.4C161.3,42.8,161.3,42.7,161.2,42.7z"/>
	<path class="st58" d="M161.1,43.5c0-0.2,0-0.4,0-0.6C161.3,43.1,161.3,43.3,161.1,43.5z"/>
	<path class="st59" d="M148.5,48.3c-0.8,0-1.5,0-2.3,0c-0.5-0.1-1.1-0.1-1.6-0.1c-0.2,0-0.3,0-0.5,0c-0.1,0-0.2,0-0.2-0.2
		c0-0.1,0.1-0.1,0.2-0.2c0.1,0,0.3,0,0.5,0c0.4,0,0.6-0.1,0.7-0.5c0.1-0.4,0.4-0.3,0.6-0.3c0.5,0.1,0.9,0.1,0.9-0.6
		c0-0.2,0.2-0.4,0.5-0.3c0.4,0,0.6-0.2,1-0.3c0.1,0,0.2,0,0.2-0.1c0-0.7,0.6-0.5,0.9-0.5c0.7,0,1.3-0.1,2,0c0.2,0.5,0.1,0.7-0.5,0.7
		c-0.5,0-0.7,0.6-1.3,0.6c-0.1,0-0.1,0.2-0.1,0.3c0,0.2-0.1,0.2-0.3,0.3c-0.3,0.4-0.7,0-1.1,0.1c-0.3,0.1-0.7,0.2-1,0.2
		c0.5,0.1,0.8,0.5,1.3,0.5C148.4,47.9,148.4,48.2,148.5,48.3z"/>
	<path class="st60" d="M149.2,47.1c0.1-0.1,0.2-0.2,0.1-0.2c-0.1-0.5,0-0.6,0.5-0.6c0,0,0.1,0,0.1,0c0.3-0.5,0.8-0.5,1.3-0.7
		c0,0,0-0.2,0.1-0.4c0.3-0.3,0.7-0.3,1.1-0.2c0.2,0,0.4,0.1,0.7-0.1c0.4-0.1,0.8,0.1,1.2-0.1c0.1,0,0.2-0.1,0.3-0.1
		c0.2,0.1,0.5-0.1,0.6,0.1c0.1,0,0.3-0.2,0.4,0c0,0.1,0,0.3-0.1,0.4c-0.1,0.1-0.2,0-0.3,0c-0.6-0.2-1.1,0.1-1.7,0.3c0,0,0,0,0,0
		c0.1,0.7-0.5,0.4-0.7,0.4c-0.5,0-0.9,0.4-0.9,1.1c0,0.3-0.1,0.3-0.3,0.2c-0.5-0.2-1,0-1.5,0C149.6,47.4,149.4,47.3,149.2,47.1z"/>
	<path class="st61" d="M156,44.1c0.4-0.3,0.7-0.7,1-1c0,0,0.1,0.1,0.1,0.1c0,0-0.1,0.1-0.1,0.1c-0.1,0.2-0.1,0.4-0.3,0.4
		C156.5,43.9,156.4,44.2,156,44.1z"/>
	<path class="st62" d="M155.2,44.9c-0.2,0-0.5,0.1-0.6-0.1c0,0,0.1,0,0.1,0c0.1,0,0.2-0.1,0.3-0.1C155,44.7,155.1,44.7,155.2,44.9z"
		/>
	<path class="st63" d="M157.2,42.6c0-0.2,0-0.4,0.2-0.6c0.1,0,0.1,0,0.2,0.1c0.1,0.1,0.1,0.3-0.1,0.4
		C157.4,42.5,157.3,42.5,157.2,42.6z"/>
	<path class="st64" d="M156.7,43.7c0.1-0.1,0.2-0.3,0.3-0.4C157,43.5,157,43.8,156.7,43.7z"/>
	<path class="st63" d="M157.1,43.1c0,0-0.1-0.1-0.1-0.1c0-0.2,0.1-0.3,0.2-0.5C157.3,42.8,157.1,43,157.1,43.1z"/>
	<path class="st27" d="M157.5,42.5c0-0.2,0-0.3,0-0.5c0-0.1,0-0.1,0.1-0.1c0.2,0.2,0.2,0.4,0,0.6c0,0,0,0,0,0
		C157.5,42.5,157.5,42.5,157.5,42.5z"/>
	<path class="st65" d="M153,45.1c-0.1,0.1-0.2,0.3-0.3,0.2c-0.5-0.2-0.9,0-1.4,0c-0.9,0-1.8,0-2.8,0.1c0.1,0.3,0.3,0.5-0.3,0.6
		c-0.4,0-0.7,0.3-1.1,0.3c-0.2,0-0.2,0.2-0.2,0.3c0,0.7-0.1,0.8-0.8,0.6c-0.4-0.1-0.8-0.3-0.8,0.4c0,0.2-0.2,0.3-0.5,0.3
		c-0.3,0-0.6,0-0.8,0c0.8,0.1,1.5,0,2.2,0.3c-0.3,0-0.5,0-0.8,0c-0.6,0.1-1.2,0.1-1.8,0c0-0.5-0.5-0.5-0.7-0.8
		c-0.1,0.1-0.2,0.1-0.2,0c0-0.1,0.1-0.2,0.2-0.2c0.5,0.1,0.7-0.2,0.8-0.7c0.1-0.4,0.4-0.3,0.7-0.3c0.8,0,0.9-0.1,0.6-0.8
		c-0.1-0.2-0.1-0.2-0.3-0.1c-0.2,0.1-0.2-0.1-0.2-0.3c1.4,0,2.7-0.1,4.1,0c0.1-0.1,0.3-0.1,0.4-0.1c1.2,0,2.3,0,3.5,0
		C152.8,45,152.9,45,153,45.1z"/>
	<path class="st66" d="M153,45.1c-1.4,0-2.9,0-4.3,0c0-0.1,0.1-0.1,0.1-0.2c1.8,0,3.6,0,5.5,0C153.9,45.3,153.4,45,153,45.1z"/>
	<path class="st67" d="M153,0.1c0.2,0,0.4,0,0.5-0.1h-1.4c-0.1,0-0.1,0.1-0.2,0.2c0,0.2,0.2,0.2,0.3,0.2c0,0,0.1,0,0.1,0
		c-0.1,0.1-0.2,0.1-0.3,0.2c-0.4,0.6-1,0.9-1.6,1.2c-0.1,0-0.1,0.1-0.2,0.1c-0.6,0.8-1.5,1.2-2.3,1.7c0.2,0.2,0.4,0.1,0.6,0.1
		c0.3,0,0.7-0.1,1.1,0.1c0.1,0,0.2,0,0.4,0c-0.1-0.2-0.1-0.3,0.1-0.5c0.4-0.4,0.6-0.9,1-1.2c0.2-0.2,0.6-0.1,0.7-0.3
		c0.3-0.7,0.8-0.8,1.4-1c0.1,0,0.3-0.1,0.3-0.3C153.4,0.2,153.2,0.3,153,0.1z"/>
	<path class="st68" d="M161.3,9.8c-0.3,0.4-0.2,0.9-0.6,1.3c0,0-0.1,0-0.1,0c-0.2-0.4-0.2-0.8,0.1-1.2c0.2-0.3,0-0.7,0.5-0.9
		c0.1,0.1,0.1,0.3,0.2,0.4C161.4,9.5,161.4,9.7,161.3,9.8z"/>
	<path class="st69" d="M161.3,13.3c0-0.6,0-1.3,0-1.9c0.2,0.5,0.1,1,0.1,1.5c0,0.4,0,0.8-0.1,1.2C161.3,13.8,161.3,13.6,161.3,13.3z
		"/>
	<path class="st70" d="M161.1,5.8c0.1,0.6-0.2,1.1,0.3,1.6c0.2,0.2,0.1,0.7-0.1,1c-0.2,0.1-0.4,0.2-0.6,0.2c-0.4,0-0.6,0.1-0.7,0.5
		c0,0.1-0.1,0.2-0.2,0.2c-0.1,0-0.2,0-0.2,0.1c0,0.7-0.5,0.7-0.9,0.9c-0.3,0.1-0.3,0.4-0.5,0.7c-0.2,0.3-0.3,0.3-0.5,0
		c0-0.1,0-0.1,0-0.2c0-1-0.1-2.1,0-3.1c0.1-0.1,0.2,0.1,0.4-0.1c0.2-0.4,0.9-0.5,1.3-0.2c0.1,0.1,0.1,0,0.2,0c0.1-0.5,0.4-0.8,1-0.9
		c0.1,0,0.1-0.2,0.2-0.3C160.8,6,160.9,5.8,161.1,5.8z"/>
	<path class="st71" d="M161.1,5.8c-0.1,0.2-0.4,0.3-0.4,0.6c0,0.2-0.2,0.1-0.2,0.1c-0.4,0.1-0.7,0.2-0.8,0.7c0,0.2-0.2,0.3-0.4,0
		c-0.1-0.2-0.9,0-1,0.2C158.2,7.7,158,7.8,158,8c-0.2-0.1-0.1-0.3-0.2-0.4c-0.1-0.1-0.2-0.2-0.2-0.3c-0.1-0.4-0.1-0.8-0.2-1.2
		c0.2-0.3,0.6-0.4,0.7-0.7c0-0.1,0.3-0.1,0.4,0c0.5,0.4,1-0.3,1.5-0.2c-0.1-0.5,0.5-0.6,0.5-1c0-0.1,0-0.2,0.2-0.1
		C160.7,4.7,161.3,5.2,161.1,5.8z"/>
	<path class="st72" d="M157.7,7.4c0.1,0.1,0.1,0.1,0.1,0.2c0,1.1-0.1,2.3,0.1,3.5c0.2-0.3,0.3-0.5,0.4-0.7c0.1-0.1,0.1-0.2,0.2-0.3
		c0.4-0.2,1-0.2,1-0.9c0.4,0,0.5-0.2,0.5-0.6c0-0.1,0.1-0.2,0.2-0.2c0.4,0.1,0.7-0.2,1.1-0.1c0.1,0.2-0.2,0.4-0.1,0.6
		c-0.1,0.7-0.7,1.3-0.6,2c0.1,0.1,0,0.1-0.1,0.2c-0.2,0.1-0.5,0.2-0.8,0c-0.2-0.2-0.6-0.1-0.8,0.1c-0.1,0.1-0.3,0.3-0.5,0.3
		c-0.2-0.1-0.1,0.1-0.1,0.2c0,0.3-0.1,0.7-0.2,1c0,0.1-0.1,0.3-0.2,0.3c-0.2,0-0.2-0.2-0.3-0.3c0-0.1,0-0.1-0.1-0.2
		c-0.2-1.2-0.1-2.5-0.1-3.7C157.6,8.4,157.4,7.9,157.7,7.4z"/>
	<path class="st73" d="M160.7,4.1c-0.2,0.6-0.5,1.3-1.2,1.4c-0.2,0-0.3,0.1-0.4,0.2c-0.1,0.2-0.2,0.2-0.3,0
		c-0.3-0.3-0.6-0.4-0.7,0.1c-0.1,0.3-0.4,0.1-0.5,0.3c-0.3,0-0.2-0.3-0.3-0.5c0-0.1,0-0.2,0.1-0.3c0.1-0.1-0.1-0.4,0.2-0.3
		c0.4,0.1,0.1,0.4,0.2,0.9c0.2-0.6,0.7-0.7,0.6-1.2c0,0,0.1-0.2,0.2-0.2c0.5,0.1,0.8-0.4,1.3-0.4c0.1,0,0.2,0.1,0.2-0.1
		c-0.1-0.3,0-0.4,0.2-0.5c0.2-0.1-0.1-0.3,0-0.4C160.5,3.4,160.2,4,160.7,4.1z"/>
	<path class="st74" d="M151.8,0H151c-0.2,0-0.3,0.1-0.5,0.1c-0.1,0-0.2,0.1-0.2,0.2c0.2,0.5-0.2,0.5-0.5,0.7c-0.6,0.3-1,0.7-1.3,1.2
		c-0.2,0.3-0.3,0.5-0.7,0.5c-0.6,0-0.8,0.4-1,0.9c0.2-0.1,0.4,0.2,0.6-0.1c0.2-0.2,0.5-0.3,0.7-0.4c0.4-0.2,0.8-0.5,1.1-0.8
		c0.5-0.5,1-1,1.6-1.3c0.3-0.1,0.7-0.3,0.6-0.7C151.6,0.2,151.7,0.1,151.8,0C151.8,0,151.8,0,151.8,0z"/>
	<path class="st75" d="M153,0h-1.2c0,0,0,0,0,0c0,0.1-0.3,0.1-0.2,0.3c0.1,0.5-0.4,0.6-0.7,0.8c-0.2,0.1-0.5,0.1-0.6,0.3
		c-0.5,0.5-0.9,1-1.6,1.4c-0.2,0.1-0.4,0.4-0.7,0.4c-0.2,0-0.4,0.2-0.4,0.5c0.1,0.1,0.2,0.1,0.3,0c0.4,0,0.7-0.3,1-0.5
		c0.9-0.4,1.4-1.4,2.4-1.8c0.6-0.2,0.7-1,1.4-1.1c-0.2-0.1-0.5-0.1-0.7-0.2C152.3,0,152.6,0.1,153,0z"/>
	<path class="st76" d="M149.6,0c0,0-0.1,0-0.1,0.1c-0.5,0.4-0.8,1.1-1.6,1.1c-0.1,0-0.1,0.1-0.2,0.2c-0.3,0.4-0.7,0.7-0.9,1.2
		c0,0.1-0.1,0.2-0.3,0.2c-0.5,0.1-0.6,0.8-1.2,0.8c0,0.1,0.1,0.2,0.1,0.3c0.2,0,0.3,0,0.5,0c0.1-0.4,0.5,0,0.7-0.4
		c0.3-0.6,0.8-1,1.3-1.5c0.8-0.7,1.8-1.2,2.5-2H149.6z"/>
	<path class="st77" d="M139.4,0.3c0.3-0.1,0.7-0.1,1-0.1c-0.2,0.4-0.7,0.4-1,0.6c-0.1,0.1-0.3,0-0.3,0.1c-0.3,0.8-1.1,1.1-1.4,1.9
		c-0.1,0-0.2-0.1-0.2,0c-0.9,0.2-1.2,1-1.8,1.6c-0.2,0.2-0.5,0.3-0.9,0.3c-0.4,0-0.7,0.1-0.7,0.7c0,0.4-0.4,0.6-0.6,0.8
		c-0.8,0.5-1.5,1.1-2.2,1.8c-0.1,0.1-0.3,0.3-0.5,0.2c-0.2-0.1-0.2-0.3-0.2-0.5c0-0.2,0-0.3,0-0.5c0.4,0.6,0.7-0.1,0.8-0.2
		c0.2-0.4,0.5-0.8,0.9-0.9c0.7-0.2,1.1-0.9,1.6-1.4c0.5-0.4,0.8-1,1.5-1c0.1,0,0.1,0,0.1-0.1c0.2-0.7,0.9-0.7,1.4-1.1
		c0.4-0.3,0.7-0.7,0.9-1C138.2,0.9,138.8,0.6,139.4,0.3z"/>
	<path class="st54" d="M135.6,4.4c0.2-0.7,1.2-1.6,1.8-1.6c-0.1,0.2-0.6,0.3-0.3,0.7c0,0-0.2,0.2-0.3,0.2
		C136.3,3.8,136,4.1,135.6,4.4z"/>
	<path class="st44" d="M135,5.4c-0.2,0.4-0.4,0.8-0.5,1.3c0,0,0,0-0.1,0C134.4,6,134.5,5.6,135,5.4z"/>
	<path class="st78" d="M137.9,0.3c0.2,0,0.3-0.1,0.5,0.1c-0.6,0-0.8,0.6-1,0.9c-0.3,0.4-0.7,0.7-0.9,1.1c0,0-0.1,0.1-0.1,0.1
		c-0.6,0.1-0.9,0.6-1.3,0.8c-0.5,0.2-0.9,0.5-1.2,0.9c-0.4,0.5-0.9,1.1-1.5,1.3c-0.7,0.2-1.1,0.6-1.2,1.3c0,0.1-0.1,0.2-0.2,0.2
		c-0.1,0-0.1-0.2-0.2-0.3c0.5-0.2,0.3-0.8,0.5-1.1c0.1-0.2,0-0.3,0.3-0.2c0.2,0.1,0.6,0.1,0.6-0.4c0-0.2,0.1-0.4,0.3-0.5
		c0.6-0.2,1.1-0.7,1.6-1.1c0.4-0.3,0.9-0.6,1.2-0.9c0.3-0.3,0.9-0.5,1-0.8c0.2-0.4,0.3-0.6,0.8-0.6c0,0,0.1,0,0.1,0
		C136.9,0.3,137.7,0.6,137.9,0.3z"/>
	<path class="st79" d="M137.2,0c-0.2,0-0.4,0.1-0.6,0.1c-0.1,0-0.2,0-0.2,0.1c0.5,0.2,0.9,0.1,1.4,0.1c0.1,0,0.2,0,0.2-0.1
		c-0.2-0.1-0.3-0.1-0.5-0.1H137.2z"/>
	<path class="st80" d="M130.8,5.3c0.2,0.3,0.2,0.5,0.1,0.7C130.6,5.8,130.7,5.6,130.8,5.3z"/>
	<path class="st48" d="M130.5,14c0-0.4,0-0.8,0-1.3c0-0.2-0.1-0.4,0.2-0.4c0.4,0,0.7-0.3,0.9-0.7c0.4-0.6,1.1-0.8,1.7-1.1
		c0.3-0.1,0.4-0.3,0.4-0.5c0-0.2,0.2-0.3,0.4-0.3c0.2,0,0.1,0.3,0.1,0.4c0,0,0,0.1,0,0.1c-0.2,0.5-0.4,0.8-0.9,0.9
		c-0.6,0.2-1.1,0.7-1.6,1.1c-0.1,0.1-0.1,0.2-0.2,0.3c-0.1,0.2-0.1,0.4-0.3,0.5c-0.3,0.2-0.6,0.5-0.6,0.9
		C130.6,14,130.5,14,130.5,14z"/>
	<path class="st81" d="M130.5,11.2c0.3,0.1,0.6,0.1,0.9-0.2c0.4-0.3,0.9-0.6,0.9-1.2c0-0.3,0.3-0.4,0.5-0.4c0.6,0,1-0.3,1.2-0.9
		c0-0.1,0.1-0.3,0.3-0.4c0,0.5-0.5,0.9-0.4,1.4c0,0.1-0.1,0-0.1,0c-0.7-0.1-1.1,0.4-1.4,0.9c-0.1,0.3-0.3,0.5-0.6,0.6
		c-0.2,0.1-0.3,0.2-0.4,0.4c-0.1,0.2-0.4,0.5-0.7,0.4C130.4,11.7,130.5,11.4,130.5,11.2z"/>
	<path class="st82" d="M130.6,10.1c0.2-0.4,0.5-0.6,0.8-0.8c0.7-0.4,1.1-1,1.6-1.4c0.3-0.2,0.6-0.4,1-0.5c0,0.8-0.5,1.2-1.1,1.5
		c-0.4,0.2-0.8,0.4-1.2,0.6c-0.3,0.1-0.4,0.4-0.5,0.7c-0.1,0.2-0.1,0.6-0.4,0.6C130.5,10.8,130.6,10.4,130.6,10.1z"/>
	<path class="st83" d="M145.2,0.1C145.1,0.1,145,0,144.9,0h-1.1c0.1,0.1,0.2,0.1,0.1,0.2c-0.6,0.4-0.9,1.2-1.6,1.4
		c-0.9,0.2-1.2,1.2-2,1.5c-0.2,0.1-0.5,0.2-0.5,0.5c0.2,0.2,0.4,0,0.6,0c0.8-0.4,1.5-0.7,2.1-1.4c0.1-0.2,0.4-0.3,0.6-0.4
		c0.3-0.2,0.6-0.4,0.7-0.8c0.1-0.3,0.4-0.5,0.7-0.6c0.2-0.1,0.5,0,0.7-0.2C145.4,0.3,145.3,0.2,145.2,0.1z"/>
	<path class="st82" d="M143.4,0h-0.3c-0.1,0-0.2,0-0.2,0c0,0.1,0,0.2-0.1,0.2c-0.8,0-1.2,0.9-2,1c-0.2,0-0.3,0.2-0.4,0.4
		c-0.3,0.5-0.5,1.1-1.2,1.1c-0.2,0-0.4,0.2-0.4,0.3c-0.1,0.5-0.4,0.5-0.7,0.6c0.3,0,0.6,0.1,0.8-0.1c0.8-0.6,1.6-1.2,2.2-1.9
		c0.5-0.6,1.1-1.1,1.9-1.2c0.2,0,0.6,0,0.6-0.3C143.5,0,143.5,0,143.4,0z"/>
	<path class="st84" d="M148.2,0C148.2,0,148.2,0,148.2,0l-1,0c-0.2,0.5-0.6,0.7-1.1,0.9c-0.3,0.1-0.7,0.2-0.8,0.6
		c-0.2,0.5-0.9,0.6-0.9,1.2c0,0-0.1,0.1-0.2,0.1c-0.6,0.1-1.1,0.5-1.6,0.8c0,0,0.1,0.1,0.1,0.1c0.2,0,0.4,0,0.6,0
		c0.4-0.2,0.8-0.4,1.3-0.6c0.6-0.1,0.8-0.5,0.8-1.1c0-0.5,0.3-0.6,0.7-0.7c0.1,0,0.2,0.1,0.3-0.1c0.2-0.4,0.7-0.5,1-0.8
		c0.3,0,0.6,0,0.8-0.1c0.1,0,0.3-0.1,0.3-0.2C148.5,0,148.3,0,148.2,0z"/>
	<path class="st85" d="M143.4,3.8c0.4-0.5,0.9-0.6,1.4-0.8c0.4-0.2,0.6-0.5,0.6-0.8c0-0.4,0.1-0.7,0.5-0.8c0.6-0.1,1-0.6,1.6-0.9
		c0,0.1,0,0.1,0,0.2c-0.4,0.2-0.8,0.4-0.9,1c0,0-0.2,0.6-0.6,0.3c0,0-0.2,0.1-0.2,0.2C145.4,3.4,144.4,3.6,143.4,3.8z"/>
	<path class="st42" d="M140.4,3.6c0.2-0.4,0.6-0.4,1-0.6c0.7-0.5,1.2-1.2,2-1.6c0.1,0,0.1-0.1,0.1-0.2c0.2-0.9,0.9-1,1.7-0.9
		c-0.1,0.3-0.4,0.2-0.6,0.4c-0.8,0.6-1.3,1.5-2.2,1.9c-0.3,0.2-0.5,0.6-0.9,0.8C141.1,3.6,140.8,3.7,140.4,3.6z"/>
	<path class="st51" d="M156.3,4.3c0,0.1,0.1,0.2,0.1,0.3c-0.3,0-0.4,0-0.5-0.3c0,0,0,0,0,0C156.1,4.3,156.2,4.3,156.3,4.3z"/>
	<path class="st86" d="M156,4.3c0.1,0.2,0.3,0.2,0.5,0.3c0,0,0,0,0,0c0.2,0.2,0.4,0.3,0.3,0.6c-0.4-0.3-0.8-0.6-1.1-0.9
		C155.8,4.3,155.9,4.3,156,4.3z"/>
	<path class="st51" d="M156.8,5.2c-0.1-0.2-0.2-0.4-0.3-0.6c0.4,0,0.4,0.6,0.8,0.7c0,0.1,0,0.2,0,0.3C156.9,5.7,157,5.4,156.8,5.2
		L156.8,5.2z"/>
	<path class="st13" d="M157.7,41.8c0,0.2,0,0.4,0,0.6c0,0-0.1,0.1-0.1,0.1c0-0.2,0.1-0.4-0.1-0.6c-0.1-0.1-0.1-0.2,0-0.2
		c0.1-0.1,0.2-0.1,0.2,0C157.7,41.7,157.7,41.7,157.7,41.8z"/>
	<path class="st87" d="M144.3,41.7c0-0.5-0.2-0.9,0.1-1.4c0.2,0.2,0.1,0.5,0.2,0.8c0,0.2,0,0.3,0,0.4c0,0.1,0,0.2-0.1,0.3
		c-0.1,0-0.1-0.1-0.2-0.1C144.3,41.7,144.3,41.7,144.3,41.7z"/>
	<path class="st88" d="M148.3,6.7c-0.8,0.2-1.6,0.1-2.4,0.1c-0.4-0.1-0.9,0.1-1.4-0.1c0.4-0.3,0.8-0.5,1.1-0.8c0.3,0,0.7,0,1,0
		c0.5,0,1,0,1.5,0c0.3,0,0.5,0.1,0.5,0.4c0,0,0,0-0.1,0c-0.1,0-0.1,0-0.2,0c-0.6-0.2-1.1,0.1-1.7,0.2C147.2,6.7,147.8,6.4,148.3,6.7
		z"/>
	<path class="st89" d="M144.6,6.6c0.4,0.3,0.9,0,1.3,0.2c-0.7,0-1.3,0-2,0c-0.3,0-0.7-0.1-0.7-0.5c0-0.4,0.3-0.5,0.7-0.5
		c0.9,0,1.8,0,2.7,0c-0.3,0.2-0.7,0-1,0.1c-0.3,0.3-0.7,0.3-1,0.2c-0.3,0-0.6-0.1-0.8,0.2C144.1,6.5,144.4,6.4,144.6,6.6z"/>
	<path class="st90" d="M148.3,6.7c-0.7,0-1.4,0-2-0.1c0.4-0.5,1.8-0.7,2.2-0.3c0,0-0.1,0-0.1,0c0,0,0,0,0.1,0c0,0,0.1,0,0.1,0
		C148.6,6.5,148.6,6.6,148.3,6.7z"/>
	<path class="st91" d="M147.4,40.1c0.2,0.3,0.4,0.7,0.2,1.1c-0.2,0.2-0.5,0.4-0.7,0.6c-0.2,0.2-0.5,0.3-0.7,0.5
		c0.1,0.2,0.3,0.2,0.3,0.3c-0.7,0.3-1.4,0.1-1.9-0.4c0,0,0,0,0,0c0.9-0.6,1.8-1.3,2.6-2C147.4,40,147.4,40.1,147.4,40.1z"/>
	<path class="st92" d="M147.4,40.1c-0.8,0.8-1.7,1.6-2.7,2.1c-0.1-0.1-0.2-0.2-0.2-0.2c0-0.1,0-0.2,0-0.3c0.9-0.6,1.7-1.3,2.4-2
		C147.2,39.6,147.4,39.8,147.4,40.1z"/>
	<path class="st93" d="M144.4,41.2c0-0.3,0-0.6,0-0.9c0,0,0-0.1,0-0.1c0.3,0.1,0.5,0.2,0.7-0.1c0.2-0.3,0.5-0.4,0.8-0.5
		c0.3-0.1,0.1-0.2,0.2-0.4c0.2-0.1,0.3,0.1,0.5,0.1c0,0,0.1,0,0.1,0c0.1,0.2,0.1,0.4-0.1,0.5c-0.6,0.4-1.2,0.8-1.7,1.4
		C144.7,41.5,144.5,41.4,144.4,41.2z"/>
	<path class="st94" d="M146.6,42.6c-0.1,0-0.3-0.1-0.4-0.1c-0.3-0.1-0.3-0.2-0.1-0.3c0.5-0.3,1-0.7,1.4-1.1c0.1-0.1,0.1,0,0.1,0.1
		C147.5,41.8,147.3,42.4,146.6,42.6z"/>
	<path class="st95" d="M144.4,41.2c0.2,0.1,0.3,0.2,0.5-0.1c0.3-0.6,1-0.9,1.5-1.3c0.2-0.1,0.3-0.2,0.3-0.4c0.1,0,0.1,0.1,0.2,0.1
		c0,0.5-0.6,0.7-0.8,1c-0.3,0.4-0.8,0.6-1.1,1c-0.1,0.1-0.3,0.1-0.4,0.1C144.4,41.5,144.4,41.3,144.4,41.2z"/>
	<path class="st96" d="M146.1,39.3c0.1,0.1,0.2,0.2,0.3,0.3c-0.6,0.2-1,0.4-1.4,0.9c-0.4,0.4-0.4-0.1-0.5-0.3
		C144.8,39.6,145.3,39.2,146.1,39.3z"/>
	<path class="st97" d="M144.6,6.6c-0.2,0-0.4,0-0.7,0c-0.1,0-0.3,0-0.4-0.1c-0.1-0.2,0.1-0.3,0.2-0.4c0.2-0.2,0.4-0.2,0.7-0.2
		c0.4,0.1,0.8,0,1.2-0.1C145.4,6.4,145.2,6.7,144.6,6.6z"/>
	<path class="st98" d="M148.5,6.3c-0.1,0.1-0.2,0.3-0.3,0.2c-0.1,0-0.1-0.1,0-0.2C148.2,6.1,148.3,6.2,148.5,6.3
		C148.5,6.3,148.5,6.3,148.5,6.3z"/>
	<g>
		<defs>
			<path id="SVGID_1_" d="M153.3,48.6h-14.8c-4.5,0-8.1-3.6-8.1-8.1V8.3c0-4.5,3.6-8.1,8.1-8.1l14.8,0c4.5,0,8.1,3.6,8.1,8.1v32.2
				C161.4,45,157.8,48.6,153.3,48.6z"/>
		</defs>
		<clipPath id="SVGID_2_">
			<use xlink:href="#SVGID_1_"  style="overflow:visible;"/>
		</clipPath>
		<path class="st99" d="M130.4,42.1c-0.2-0.3-0.1-0.6-0.1-0.9c0-6.5,0-13.1,0-19.6c0-0.1,0-0.3,0-0.4c0.4-0.3,0.8-0.5,1.4-0.5
			c0.1,0,0.2,0.1,0.2,0.2c-0.2,0.3-0.5,0.4-0.8,0.5c-0.3,0.1-0.4,0.3-0.3,0.6c0,0.8,0,1.7,0,2.5c0,2.1,0.1,4.2,0,6.3
			c-0.2,0.6,0,1.3-0.1,1.9c-0.1,0.3-0.1,0.5-0.1,0.8c0,2.6,0,5.2,0,7.8C130.5,41.6,130.6,41.9,130.4,42.1z"/>
		<path class="st100" d="M130.4,42.1c0-2.9,0-5.9,0-8.8c0-0.2-0.1-0.5,0.1-0.6c0.2,0.2,0.2,0.5,0.2,0.8c0,2.4,0,4.7,0,7.1
			c0,0.2,0,0.5,0,0.7c0,0.1,0,0.2,0,0.3c0.1,0.6,0,1.2,0.2,1.7c0.1,0.6,0.3,1.2,0.6,1.7c0.1,0.2,0.2,0.3,0.2,0.6
			c0,0.1,0,0.1-0.1,0.1C130.9,44.6,130.5,43.4,130.4,42.1z"/>
		<path class="st101" d="M132.2,2.3c0,0-0.1,0-0.1,0.1c-1.1,1.1-1.7,2.5-1.8,4.1c-0.1,2.6,0,5.3,0,7.9c0.1,0,0.1,0,0.2-0.1
			c0.2-0.5,0-1,0.1-1.6c0-0.6,0-1.2,0-1.8c0-0.7,0-1.4,0-2.1c0-0.4,0-0.7,0-1.1c0-0.4,0.1-0.7,0.1-1c0-0.2,0-0.5,0.1-0.7
			c0-0.6,0.3-1,0.4-1.5c0.2-0.4,0.4-0.9,0.7-1.3c0.1-0.3,0.5-0.4,0.4-0.8C132.3,2.3,132.2,2.3,132.2,2.3z"/>
		<path class="st102" d="M161.6,41.4c0,0.1,0,0.2,0.1,0.2c0,0,0,0.1,0,0.1c0,0.2,0,0.4,0,0.7c-0.1,0.1,0,0.3-0.1,0.4
			c0,0-0.1,0.1-0.1,0.1c-0.1,0-0.1-0.1-0.1-0.2c-0.1-1.4,0-2.8,0-4.2c0-0.7,0-1.4,0-2c0-1.2,0-2.3,0-3.5c0-0.2,0-0.5,0.1-0.7
			c0.4,0,0.2,0.3,0.2,0.5c0,1.7,0,3.5,0,5.2C161.6,39.2,161.6,40.3,161.6,41.4z"/>
		<path class="st103" d="M130.3,14.3C130.3,14.3,130.3,14.3,130.3,14.3c0.3,0.2,0.2,0.5,0.3,0.8c0,1,0,2,0,3c0,0.9-0.1,1.7,0,2.6
			c0.1,0.1,0.2,0,0.3,0c0.3-0.1,0.6-0.2,0.9-0.3c0.1,0,0.2-0.1,0.3-0.1c0.1,0,0.2,0,0.2,0c0.1,0,0.2,0,0.2,0.1
			c-0.1,0.5-0.5,0.3-0.8,0.4c-0.5,0-0.8,0.4-1.3,0.4C130.2,19,130.3,16.7,130.3,14.3z"/>
		<path class="st104" d="M130.6,24.4c-0.1-0.9,0.1-1.8-0.1-2.7c0-0.2,0.1-0.3,0.2-0.3c0.4-0.1,0.7-0.4,1.2-0.5
			c0.5-0.4,1.2-0.5,1.7-0.8c0.4-0.2,0.7,0,0.7,0.4c0,0.3,0,0.6-0.1,0.9c-0.2,0.5,0,1.1-0.3,1.6c-0.3,0.3-0.7,0.4-1.1,0.1
			c-0.3-0.2-0.5,0.1-0.5,0.3c-0.1,0.8-0.5,0.9-1.2,0.8c-0.2,0-0.3,0.1-0.4,0.1C130.7,24.4,130.7,24.4,130.6,24.4z"/>
		<path class="st105" d="M130.6,24.4c0,0,0.1,0,0.1,0c0.3,0.5,0.1,1.1,0.2,1.6c0,0.1,0,0.1,0,0.2c0,0.8,0,0.9,0.7,1
			c0.2,0,0.4,0,0.4-0.2c0.1-0.7,0.6-0.7,1.1-0.7c0.5,0,0.5-0.1,0.5-0.5c0-0.5,0.2-1,0.2-1.6c0.1-0.4,0.1-0.8,0.1-1.3
			c0.1-0.5,0-1.1,0.2-1.6c0.3,0.3,0.1,0.8,0.2,1.1c0,0.3,0,0.6,0,0.8c0,1.4-0.2,2.7-0.1,4.1c0,0.2,0,0.4-0.1,0.5
			c-0.2,0.3-0.5,0.3-0.7,0.3c-0.3,0.1-0.4,0.3-0.4,0.6c0,0.2,0.2,0.5,0.1,0.6c-0.2,0.1-0.5,0.2-0.8,0.1c-1.2-0.2-1.2-0.2-1.3,1
			c0,0.3,0.1,0.7-0.2,1c-0.1,0-0.1,0-0.1-0.1c0-0.2-0.1-0.5,0.1-0.7C130.6,28.7,130.6,26.5,130.6,24.4z"/>
		<path class="st106" d="M134.1,23.5c0-0.7,0-1.4,0-2.1c0-0.3,0-0.6,0-0.8c0-0.2,0.1-0.3-0.1-0.4c-0.2-0.1-0.4,0-0.5,0.1
			c-0.5,0.4-1.1,0.4-1.6,0.7c-0.1,0-0.2,0-0.3,0c0.3-0.1,0.5-0.3,0.8-0.4c0.5-0.4,1.1-0.5,1.7-0.8c0.2-0.1,0.4,0,0.5,0.2
			c0.1,0.3,0,0.6,0,0.9c0,6.7,0,13.5,0,20.2c0,0.4,0.1,0.8,0,1.2c-0.3,0.1-0.3-0.1-0.4-0.3c-0.1-0.3-0.1-0.6-0.1-0.9c0-1,0-2,0-2.9
			c0-3.1,0-6.3,0-9.4c0-1.5,0-3,0.1-4.5C134.2,23.8,134.2,23.6,134.1,23.5z"/>
		<path class="st107" d="M130.6,30.9c0,0.3,0,0.5,0,0.8c0.1,0.2,0.1,0.3,0.2,0.5c0,1.4,0.1,2.8,0,4.1c0,1.5,0,3,0,4.4
			c0,0.2,0,0.5-0.2,0.7c-0.2-0.2-0.1-0.4-0.1-0.6c0-2.7,0-5.4,0-8.2C130.5,32.1,130.4,31.5,130.6,30.9z"/>
		<path class="st108" d="M161.6,41.4c-0.1-0.2-0.1-0.4-0.1-0.6c0-2.6,0-5.2,0-7.8c0-0.2,0.1-0.5-0.1-0.6c-0.2-0.2-0.2-0.5-0.2-0.7
			c0-0.8,0-1.7,0-2.5c0-1.2,0-2.3,0-3.5c0-1.5,0-3.1,0.1-4.6c0,0.3,0,0.6,0,0.9c0,0.2-0.1,0.3-0.1,0.5c0,0.2-0.1,0.4-0.4,0.2
			c-0.2-0.1-0.3,0-0.3,0.1c-0.1,0.3-0.5,0.4-0.5,0.8c0,0.3-0.3,0.5-0.6,0.5c-0.3,0.1-0.6-0.1-1,0c-0.2,0-0.2-0.2-0.2-0.4
			c0-0.5,0-1.1,0-1.5c0.1,0.6,0,1.2,0,1.9c0,0.3,0,0.6-0.3,0.8c-0.1,0-0.1,0-0.2-0.1c0-1.2-0.1-2.4,0-3.6c0-0.1,0.1-0.3,0.2-0.4
			c0.6-0.1,1.3-0.1,1.9,0c0.2,0,0.3,0.2,0.4,0.3c0.3-0.5,0.3-1.2,0.4-1.8c0-0.1,0.1-0.3,0.3-0.3c0.1,0,0.1,0.1,0.1,0.1
			c0.1,0.3,0,0.7,0.1,1c-0.2-1.6,0-3.2-0.2-4.8c0-0.6,0-1.1,0.1-1.7c0-0.2,0-0.4,0.3-0.4c0.1,0.2,0,0.5,0.1,0.7
			c-0.1-0.9-0.1-1.7-0.2-2.6c-0.2-0.5-0.2-1,0-1.6c0-0.1,0.1-0.3,0.1-0.4c0.1-0.1,0.1-0.3,0.3-0.4c0,0.2,0,0.4,0,0.6
			c0,10.4,0,20.7,0,31.1C161.7,41,161.6,41.2,161.6,41.4z"/>
		<path class="st109" d="M134,40.5c-0.6-0.2-1.1,0.1-1.4,0.4c-0.4,0.4-0.6,0.7-1.2,0.7c-0.3,0-0.3,0.6-0.6,0.9
			c-0.1-0.3,0-0.6-0.3-0.8c0-0.1,0-0.2,0-0.2c0-1.7,0-3.4,0-5.1c0.1,0,0.2,0.1,0.2,0.2c0.1,0.5,0,1.1,0,1.6c0,0.6,0,1.3,0,1.9
			c0-0.2,0-0.4,0.2-0.4c0.2-0.1,0.3,0,0.4,0.2c0.1,0.2,0.1,0.4,0.5,0.3c0.3-0.1,0-0.2,0.1-0.4c0.4-0.4,0.6-1,1.2-1.1
			c0.3-0.1,0.3-0.2,0.3-0.4c0-0.5,0.2-0.9,0.2-1.4c0-0.6,0-1.1,0-1.7c0-0.1-0.1-0.5,0.3-0.3c0,1.1,0.1,2.1-0.1,3.2
			C134,38.9,134,39.7,134,40.5z"/>
		<path class="st110" d="M130.4,12.7c0,0,0.1,0,0.1,0c0.3,0.4,0.1,0.8,0.2,1.2c0,0.2,0,0.4,0,0.6c0,0.2,0,0.4-0.1,0.6
			c0,0.1-0.1,0.1-0.2,0c0-0.3,0-0.5,0-0.8C130.4,13.8,130.4,13.3,130.4,12.7z"/>
		<path class="st111" d="M161.5,29.1c0,1.1,0,2.1,0,3.2c0,1.4,0,2.8,0,4.2c-0.1,0-0.1,0-0.2,0c-0.2-0.5,0-1-0.1-1.5
			c0-0.9,0.1-1.7,0-2.6c0-0.8,0-1.7,0-2.5c0-0.2,0-0.5,0.1-0.7C161.3,29.1,161.4,29.1,161.5,29.1z"/>
		<path class="st112" d="M161.3,36.5c0,0,0.1,0,0.1,0c0,2.1,0,4.2,0,6.2c0,0-0.1,0-0.1,0c-0.3-0.4-0.1-0.9-0.2-1.4
			c0-1.1,0-2.2,0-3.3c0-0.3,0-0.6,0-0.8C161.2,37,161.1,36.7,161.3,36.5z"/>
		<path class="st113" d="M130.9,20.8c-0.1,0-0.2,0.1-0.2,0.1c-0.3-0.1-0.2-0.4-0.2-0.6c0-0.7,0-1.4,0-2.1c0-0.2,0-0.4,0-0.6
			c0-0.2,0.2-0.3,0.4-0.3c0.3,0,0.5,0,0.4-0.4c0-0.1,0.1-0.1,0.2-0.1c0.6,0,0.8-0.5,1.1-0.8c0.4-0.5,1.1-0.8,1.7-1.2
			c0.3-0.1,0.5,0,0.6,0.2c0,0.5,0.1,1-0.1,1.5c-0.2,0.2-0.3-0.1-0.3-0.2c-0.1-0.2,0-0.5-0.1-0.9c-0.2,0.7-0.5,1-1.1,1.2
			c-0.5,0.2-0.8,0.8-1.4,0.8c-0.1,0.5-0.5,0.5-0.8,0.6c-0.1,0-0.1,0.2-0.1,0.4c0,0.3,0,0.6,0,0.9c0,0.3,0,0.6,0,0.9
			c0,0,0.1,0.1,0.1,0.1C130.9,20.7,130.9,20.8,130.9,20.8z"/>
		<path class="st114" d="M130.9,20.7c0,0-0.1,0-0.1,0c0-0.4-0.3-0.9,0.5-1c0.1,0,0.1-0.1,0.2-0.2c0-0.3,0.2-0.4,0.5-0.5
			c0.3-0.1,0.5-0.4,0.7-0.5c0.7-0.3,1.2-0.7,1.6-1.4c0.1-0.2,0.3-0.1,0.4,0.1c0,0.3,0,0.5,0.1,0.8c0,0.3,0.1,0.6,0,0.8
			c-0.3,0.1-0.3,0.1-0.4-0.4c-0.2,0.7-1,0.8-1.5,1.1c-0.3,0.2-0.6,0.3-0.6,0.7c0,0.1-0.1,0.1-0.2,0.1
			C131.5,20.4,131.1,20.3,130.9,20.7z"/>
		<path class="st115" d="M132.1,20.4c-0.1-0.3-0.1-0.5,0.4-0.7c0.7-0.3,1.5-0.5,1.7-1.3c0.3,0.2,0.1,0.5,0.3,0.6
			c0.1,0.1,0.1,0.2,0.1,0.3c-0.1,0.2-0.3,0.3-0.4,0.4c-0.6,0.3-1.2,0.5-1.9,0.7C132.2,20.4,132.1,20.4,132.1,20.4z"/>
		<path class="st116" d="M132.2,20.4c0.7-0.4,1.5-0.5,2.1-1c0-0.1,0.1-0.1,0.1-0.2c0.1,0,0.1,0,0.1,0.1c0,0.1,0,0.1,0,0.2
			c0,0.1,0,0.1-0.1,0.2c-0.7,0.2-1.3,0.5-2,0.7C132.3,20.4,132.3,20.4,132.2,20.4z"/>
		<path class="st117" d="M130.8,20.7c0.1-0.6,0.4-0.7,0.9-0.2c-0.3,0.2-0.6,0.2-0.9,0.3C130.8,20.8,130.8,20.8,130.8,20.7z"/>
		<path class="st118" d="M130.5,18.2c0,0.7,0,1.4,0,2.1c0,0.2,0,0.4,0.1,0.6c-0.4,0.1-0.2-0.2-0.2-0.3c0-0.8,0-1.6,0-2.4
			C130.4,18.2,130.4,18.2,130.5,18.2z"/>
		<path class="st119" d="M130.5,18.2c0,0-0.1,0-0.1,0c0-1,0-2,0-3.1c0,0,0.1,0,0.1,0c0.2,0.2,0.1,0.5,0.2,0.8c0,0.5,0,1-0.1,1.5
			c0,0.1-0.1,0.1-0.1,0.2C130.5,17.8,130.5,18,130.5,18.2z"/>
		<path class="st120" d="M133.9,23c0.2,0.4,0.1,0.8,0,1.3c-0.2,0.7-0.2,0.7-1,0.6c-0.3,0-0.6,0.1-0.7,0.4c-0.2,0.5-0.3,0.5-0.7,0.2
			c-0.3-0.2-0.3-0.1-0.4,0.2c-0.1,0.2,0,0.5-0.4,0.5c0-0.6,0-1.2,0-1.8c0.1-0.3,0.4-0.3,0.6-0.3c0.4,0,0.8,0.1,0.8-0.6
			c0-0.5,0.6-0.9,0.8-0.7C133.2,23.4,133.6,23,133.9,23z"/>
		<path class="st121" d="M130.7,36.4c0,0-0.1-0.1-0.1-0.1c0-1.6,0-3.1,0-4.7c0,0,0.1,0,0.1,0c0.2,0.2,0.1,0.5,0.1,0.8
			c0,0.4,0.1,0.5,0.5,0.3c0.2-0.1,0.3-0.2,0.5-0.3c0.3-0.2,0.6-0.4,1.1-0.3c0.4,0,0.5-0.1,0.2-0.4c0,0-0.1-0.1,0-0.2
			c0.3,0,0.7-0.5,1,0c0.2,0.5,0,1,0.1,1.5c0,0.5,0,1.1,0,1.6c-0.2,0.3-0.5,0.3-0.9,0.3c-0.8,0-0.8,0-1.1,0.7
			c-0.1,0.5-0.4,0.9-0.5,1.3c-0.1,0.3-0.2,0.2-0.4,0.1C131.2,36.8,131.1,36.5,130.7,36.4z"/>
		<path class="st122" d="M133.9,31.4c-0.3-0.3-0.5,0.3-0.8,0c0.2,0.2,0.2,0.5,0.5,0.8c-1.2-0.3-2,0.5-2.9,0.8c0-0.5,0-0.9,0-1.4
			c-0.1-0.7,0.1-1.3,0.1-2c0-0.3,0.2-0.4,0.4-0.3c0.3,0.1,0.6,0,0.7,0c0.4,0.3,0.7-0.2,1,0.1c0,0,0-0.1,0-0.1c-0.3-1-0.3-1,0.7-1.2
			c0.1,0,0.2-0.1,0.3-0.1c0.1,0,0.2,0.1,0.2,0.2c0,0.8,0.2,1.7-0.1,2.5C134,31,134.1,31.3,133.9,31.4z"/>
		<path class="st123" d="M130.7,26.2c0.4-0.2,0.1-0.8,0.5-1c0.1-0.1,0.1,0,0.2,0.1c0.3,0.2,0.6,0.9,0.8-0.1c0-0.3,0.4-0.4,0.8-0.3
			c0.4,0.1,0.9,0.3,0.8-0.5c0-0.1,0.1,0,0.2,0c-0.1,0.7-0.2,1.3-0.2,2c0,0.3-0.1,0.3-0.4,0.2c-0.3-0.1-0.5,0-0.7,0
			c-0.3,0-0.4,0.1-0.4,0.4c-0.1,0.5-0.5,0.6-0.8,0.3c0,0,0-0.1-0.1-0.1c-0.5,0.1-0.5,0.1-0.5-0.4C130.7,26.5,130.7,26.4,130.7,26.2z
			"/>
		<path class="st124" d="M133.9,31.4c0.1-1,0.2-1.9,0.1-2.9c0-0.1,0-0.3-0.1-0.4c0.3-0.5,0-1.1,0.1-1.6c0.1-1,0.1-2,0.1-3
			c0.2,0.1,0.1,0.3,0.1,0.5c0,4.7,0,9.4,0,14.1c0,0-0.1,0-0.1,0c0-0.9,0-1.8,0-2.8c0-0.2,0.1-0.4-0.1-0.5c0,0,0-0.1,0-0.1
			c0,0,0,0,0,0c0.1-0.9-0.1-1.8,0-2.6C134,31.8,134,31.6,133.9,31.4z"/>
		<path class="st125" d="M161.3,13.3c-0.2,0.6-0.3,1.1-0.2,1.7c0.2,1.9,0,3.7,0.1,5.6c-0.2-0.5,0.1-1.1-0.2-1.6c0-0.4-0.1-0.8,0-1.2
			c-0.1,0.4,0,0.8,0,1.2c-0.3,0.3-0.2,0.7-0.2,1c0,0.5-0.5,0.9-0.5,1.5c0-0.8-0.5-0.7-1-0.7c-0.4,0-0.8,0.2-1.1-0.1
			c-0.3-0.5-0.1-1-0.2-1.5c0-0.3,0-0.6-0.1-0.9c0.1,0.2,0.2,0.5-0.1,0.7c-0.3-0.1-0.1-0.5-0.3-0.7c0,0-0.1-0.1-0.1-0.2
			c0-0.1,0-0.2,0-0.3c1.2-2.2,2.2-4.6,3.2-6.9c0.1-0.3,0.3-0.5,0.3-0.8c0-0.2,0.1-0.4,0.3-0.4c-0.1,0.5-0.1,1.1,0,1.6
			C161.4,12,161.4,12.7,161.3,13.3z"/>
		<path class="st126" d="M158.2,24.8c0.2-1,0.1-2.1,0.1-3.3c0.3,0.7,0.2,1.3,0.2,1.9c0,0.3,0,0.6,0.5,0.4c0.3-0.1,0.7,0.2,1-0.2
			c0-0.1,0.1-0.2,0.1-0.2c-0.1-0.5,0.3-0.6,0.5-0.9c0.2-0.3,0.4-0.1,0.6,0.1c0.1-0.2,0-0.5,0.2-0.6c0.1,0.6,0,1.2,0.1,1.7
			c-0.1,0.5-0.1,1-0.1,1.5c0,0.3-0.1,0.5-0.5,0.5c-0.3,0-0.6,0-0.7,0.4c-0.1,0.2-0.4,0.5-0.6,0c-0.1-0.1-0.1,0-0.1,0
			c-0.4,0.1-0.7,0.3-0.8,0.8c0,0.2,0,0.6-0.4,0.7c-0.2-0.2-0.1-0.5-0.1-0.8c0-0.3,0.1-0.7-0.1-1c0-0.1,0-0.2,0-0.2
			C158.2,25.4,158,25.1,158.2,24.8z"/>
		<path class="st127" d="M158,25.7c0,0.1,0,0.2,0,0.2c-0.4-0.1-0.3-0.4-0.3-0.6c0-1,0-2.1,0-3.1c0-0.2,0-0.5-0.1-0.7
			c-0.1-0.7,0-1.4,0-2c0-0.2,0-0.3,0.2-0.5c0.2-0.2,0-0.5,0.2-0.8c0.4,0.9,0.1,1.7,0.2,2.5c-0.4,0.6-0.2,1.4-0.2,2
			c0,0.7,0,1.4,0,2.1C158.2,25.1,158.2,25.4,158,25.7z"/>
		<path class="st128" d="M161.3,24c0-0.6,0-1.3,0-1.9c0-0.5,0-1,0-1.5c0,0,0.1,0,0.1,0c0,1.7,0,3.3,0,5c-0.1,0-0.1,0-0.2-0.1
			C161.3,25,161.3,24.5,161.3,24z"/>
		<path class="st129" d="M161.3,25.6c0,0,0.1,0,0.1,0c0,1.2,0,2.4,0,3.5c0,0-0.1,0-0.1,0l-0.1,0c-0.2-0.1-0.1-0.3-0.2-0.5
			c0-0.5,0-1,0-1.6C161.2,26.6,161,26.1,161.3,25.6z"/>
		<path class="st130" d="M158,25.7c0-0.3,0-0.6,0-0.9c0,0,0.1,0,0.1,0C158.2,25.1,158.5,25.5,158,25.7z"/>
		<path class="st128" d="M161.5,17.8c0,0.4,0,0.9,0,1.3c0,0-0.1,0-0.1,0c0-0.4,0-0.9,0-1.3C161.4,17.7,161.4,17.7,161.5,17.8z"/>
		<path class="st131" d="M161.5,17.8L161.5,17.8c-0.1,0-0.1,0-0.1,0c0-0.4,0-0.9,0-1.3c0,0,0.1,0,0.1,0
			C161.5,16.9,161.5,17.3,161.5,17.8z"/>
		<path class="st132" d="M134,34.6c0,0,0,0.1,0,0.1c0,0.7,0,1.4-0.1,2c-0.5,0.3-0.9,0.6-1.4,1c-0.6,0.4-0.9,0.4-1.4-0.2
			c-0.2,0.2,0,0.7-0.4,0.7c0-0.6,0-1.2,0-1.8c0.1-0.2,0.3-0.2,0.4,0c0.1,0.2,0.3,0.4,0.5,0.7c-0.1-0.8,0.6-1.4,0.5-2.1
			c0-0.2,0.2-0.2,0.4-0.3C133.1,34.6,133.6,34.8,134,34.6z"/>
		<path class="st133" d="M130.7,38.3c0.2-0.2,0.2-0.4,0.2-0.6c0-0.2,0-0.2,0.2-0.3c0.1,0,0.2,0,0.2,0.2c0.2,0.4,0.5,0.5,0.9,0.2
			c0.4-0.3,0.9-0.6,1.3-1c0.1-0.1,0.2,0,0.3,0c0.1,0.6-0.2,1.1-0.2,1.6c0,0.1,0,0.3,0,0.5c-0.4-0.2-0.6-0.1-0.9,0.3
			c-0.3,0.3-0.8,0.5-0.6,1.1c-0.1,0-0.1,0.2-0.2,0.1c-0.2-0.1-0.5,0.2-0.6-0.2c-0.1-0.2,0-0.5-0.3-0.4c-0.3,0.1-0.1,0.3-0.1,0.5
			c0,0.1,0,0.2-0.2,0.3C130.7,39.7,130.7,39,130.7,38.3z"/>
		<path class="st134" d="M134.7,9.4c0.1,2,0,4,0,6c-0.1,0-0.1,0-0.1-0.1c0-0.3-0.1-0.6-0.2-0.9c-0.1-0.5,0-0.9,0-1.4
			c0-0.5,0-0.9,0-1.4c0-0.5-0.1-1,0.2-1.5c0,0,0,0,0,0C134.8,9.9,134.5,9.6,134.7,9.4z"/>
		<path class="st135" d="M134.5,10.1c0,0.5,0,1,0,1.5c-0.2,0.1-0.4,0.3-0.5,0.5c-0.1,0.5-0.4,0.7-0.9,0.8c-0.8,0.2-1.5,0.5-1.8,1.3
			c-0.1,0.3-0.5,0.5-0.9,0.3c0-0.2,0-0.4,0-0.6c0.2-0.1,0.1-0.3,0.1-0.5c0-0.2,0-0.3,0.3-0.3c0.4,0,0.6-0.3,0.6-0.5
			c0.1-0.8,1-1.1,1.5-1.4C133.5,10.9,134.1,10.7,134.5,10.1z"/>
		<path class="st136" d="M130.5,14.6c0.4,0,0.7-0.2,0.8-0.5c0.4-0.9,1.2-1.1,2.1-1.3c0.3-0.1,0.4-0.2,0.5-0.4
			c0.1-0.3,0.1-0.8,0.7-0.7c0,0.5,0,0.9,0,1.4c-0.1,0-0.1,0-0.2,0c-0.1-0.2-0.1-0.4-0.1-0.5c0,0.7-0.4,1.1-1.2,1.2
			c-1.1,0.1-1.3,0.7-1.6,1.7c0,0-0.1,0.1-0.1,0.1c-0.5-0.2-0.6,0.1-0.6,0.4c0,0.1-0.1,0.1-0.2,0.1c0-0.3,0-0.5,0-0.8
			C130.5,15,130.5,14.8,130.5,14.6z"/>
		<path class="st137" d="M161.2,32.4c0.2,0.9,0.2,1.7,0,2.6c0.1,0.4,0,0.6-0.4,0.5c-0.3-0.1-0.5,0-0.7,0.1c-0.3,0.2-0.6,0.1-0.9,0.1
			c-0.5,0-0.7,0.2-0.8,0.7c-0.1,1.1-0.3,2.2-0.3,3.3c0,0.3,0,0.5,0,0.8c-0.2,0.4-0.3,0.2-0.5-0.1c-0.1-1-0.1-2,0-3
			c0-0.2,0.1-0.3,0.1-0.5c0.2-0.4,0-0.9,0.1-1.4c0.1-0.2,0.1-0.4,0.1-0.7c0-0.1,0-0.1,0-0.2c0.1-0.3,0.1-0.7,0.2-1.1
			c0.1-0.2,0.2-0.4,0.4-0.3c0.2,0.1,0.4,0,0.6-0.1c0.4,0,0.6-0.2,0.7-0.7C160,32.2,160.6,32.1,161.2,32.4z"/>
		<path class="st138" d="M161.2,32.4c-0.1,0-0.3-0.1-0.4-0.1c-0.4,0-0.9-0.1-0.8,0.6c0,0.1,0,0.5-0.4,0.4c-0.2,0-0.5-0.1-0.6,0.3
			c0,0.1-0.1,0-0.1,0c-0.4-0.2-0.4-0.2-0.5,0.2c-0.1,0.3,0,0.6-0.2,0.9c-0.3-0.8-0.1-1.6-0.1-2.5c0-0.1,0,0,0-0.1c0.2-1,0.2-1,1.2-1
			c0.3,0,0.6,0,0.6-0.4c0.1-0.3,0.4-0.3,0.6-0.3c0.4,0,0.5-0.1,0.5-0.5c0-0.3,0-0.6,0-0.8c0-0.2,0-0.4,0.3-0.5c0,0.2,0,0.3,0,0.5
			c0,0.9,0,1.8,0,2.6C161.3,32,161.4,32.2,161.2,32.4z"/>
		<path class="st139" d="M158,40.5c0-1.5,0.1-3,0.3-4.5c0.1-0.3,0.2-0.4,0.5-0.4c0.3,0,0.6,0,0.9,0c0.1,0,0.4,0,0.4-0.1
			c0.2-0.4,0.4-0.2,0.6-0.1c0.3,0.1,0.6,0.1,0.5-0.3c0.2,0.5,0,1,0.1,1.5c0,0.2,0,0.5,0,0.7c-0.8,0.1-1.5,0.4-2.3,0.3
			c-0.5,0-0.6,0.2-0.6,0.6c0,0.6,0,1.2,0,1.8C158.4,40.1,158.4,40.5,158,40.5z"/>
		<path class="st140" d="M158,40.5c0.2-0.2,0.2-0.4,0.2-0.7c0-0.7,0-1.4,0-2c0-0.4,0.1-0.5,0.5-0.5c0.5,0.1,1,0,1.5-0.1
			c0.3-0.1,0.7,0,1.1,0c0,0.3,0,0.5,0,0.8c-0.2,0.6-0.1,1.2-0.1,1.8c0,0.2,0,0.4,0,0.8c-0.3-0.5-0.6-0.2-0.9-0.1
			c-0.3,0.1-0.6,0.3-1,0.2c-0.2-0.1-0.2,0.1-0.2,0.2c0,0.1,0,0.3-0.2,0.3c-0.2,0.1-0.3-0.1-0.3-0.2c-0.1-0.1-0.2-0.3-0.3-0.3
			c-0.2,0.6,0,1.3-0.6,1.6c-0.1-0.2,0-0.4-0.1-0.6c0.1-0.4-0.1-0.9,0.2-1.2C157.9,40.5,158,40.9,158,40.5z"/>
		<path class="st141" d="M130.6,19.6c0-0.2,0-0.5,0-0.7c0-0.3-0.2-0.8,0.6-0.7c0.2,0,0.3-0.4,0.5-0.5c0.7-0.3,1.1-1,1.8-1.1
			c0.2,0,0.4-0.4,0.4-0.7c0-0.2,0-0.4,0.3-0.4c0.2,0,0.2,0.3,0.2,0.4c0,0.2,0,0.3,0,0.5c-0.1,0.2-0.3,0.5-0.5,0.7
			c-0.2,0.3-0.4,0.5-0.7,0.5c-0.7,0-0.9,0.6-1.2,1C131.6,19.1,131.2,19.3,130.6,19.6z"/>
		<path class="st142" d="M130.6,19.6c0.2-0.2,0.4-0.3,0.6-0.5c0.6-0.3,0.8-0.8,1.1-1.2c0.2-0.3,0.6-0.4,0.9-0.4
			c0.3,0,0.5-0.2,0.6-0.4c0.1-0.3,0.3-0.5,0.6-0.6c0,0.1,0,0.3,0.1,0.3c0.2,0.4,0.2,0.8,0,1.3c-0.3-0.2,0-0.6-0.2-0.8
			c-0.3,0-0.3,0.3-0.4,0.5c-0.3,0.3-0.3,0.8-1,0.6c0,0-0.2,0.1-0.2,0.2c-0.2,0.4-0.6,0.6-1.1,0.8c-0.1,0-0.2,0.1-0.2,0.3
			c0,0.3,0,0.6-0.5,0.4c-0.2-0.1-0.2,0.1-0.3,0.2c0,0.2,0,0.4,0,0.6C130.5,20.4,130.7,20,130.6,19.6z"/>
		<path class="st143" d="M130.5,17.6c0,0,0-0.1,0-0.1c0.1-0.2,0.1-0.4,0.1-0.5c0-0.1,0-0.3,0.2-0.3c0.8-0.1,1-0.8,1.4-1.2
			c0.3-0.3,0.6-0.5,1-0.6c0.3-0.1,0.5-0.1,0.7-0.3c0.3-0.3,0.5-0.2,0.7,0.2c0,0.1,0,0.2-0.1,0.3c-0.3-0.1-0.5,0.1-0.7,0.2
			c-0.8,0.5-1.5,1.2-2.1,1.9c-0.1,0.1-0.1,0.1-0.4-0.1c-0.1,0.2-0.1,0.3,0,0.5C131,17.5,130.8,17.5,130.5,17.6z"/>
		<path class="st144" d="M134.5,15c0-0.1,0-0.2,0-0.3c-0.1-0.1-0.1-0.2,0-0.2c0.2,0.3,0.1,0.6,0.1,0.9c0.1,1.3,0.1,2.6,0,3.9
			c0,0-0.1,0.1-0.1,0.1c0-0.1,0-0.2,0-0.3c0-0.3,0-0.7,0-1c0-0.4,0-0.8,0-1.3C134.5,16.2,134.5,15.6,134.5,15z"/>
		<path class="st115" d="M134.6,19.2c0-1.3,0-2.6,0-3.9c0,0,0,0,0.1,0C134.8,16.7,134.8,18,134.6,19.2
			C134.7,19.3,134.7,19.2,134.6,19.2C134.7,19.2,134.6,19.2,134.6,19.2z"/>
		<path class="st145" d="M134.5,14.5c0,0.1,0,0.2,0,0.2c-0.2-0.2-0.3-0.3-0.6,0c-0.1,0.1-0.2,0.2-0.4,0.2c-0.9,0.1-1.3,0.8-1.8,1.4
			c-0.1,0.1-0.2,0.3-0.4,0.4c-0.5,0.1-0.7,0.5-0.9,0.9c0-0.5,0-1.1,0-1.6c0,0,0.1-0.1,0.1-0.1c0.2-0.2,0.5-0.3,0.7-0.5
			c0.1-0.3,0.2-0.5,0.5-0.6c0.9-0.6,1.8-1.1,2.6-1.7c0,0,0.1,0,0.1,0C134.5,13.5,134.5,14,134.5,14.5z"/>
		<path class="st146" d="M138.8,27.4c0.3-0.6,0.5-1.2,0.8-1.8c0.2-0.3,0.4-0.2,0.7-0.1c0.8,0.4,1.6,0.8,2.4,1.2
			c0.3,0.1,0.4,0.3,0.4,0.6c0,0.4-0.2,0.6-0.5,0.8c-0.2,0.3-0.3,0.7-0.5,1c-0.1,0.1-0.3,0.1-0.4,0c-0.9-0.6-2-1-2.9-1.5
			C138.8,27.6,138.8,27.5,138.8,27.4z"/>
		<path class="st147" d="M141.4,30.9c-0.2,0.6-0.4,1.2-0.8,1.7c-0.2,0.1-0.3,0-0.4-0.1c-0.9-0.4-1.8-0.9-2.6-1.3
			c-0.1-0.1-0.2-0.2-0.3-0.3c0.3-0.6,0.6-1.2,0.8-1.8c0.3-0.1,0.6,0.1,0.8,0.2c0.7,0.3,1.5,0.7,2.2,1.1
			C141.3,30.4,141.5,30.5,141.4,30.9z"/>
		<path class="st148" d="M148.8,17.5c0.2,0.3,0.3,0.6,0.4,0.9c0,0.1,0,0.2-0.1,0.2c-0.8,0.7-1.7,1-2.7,1.4c0,0-0.1-0.1-0.1-0.1
			c-0.1-0.3,0.1-0.5,0.2-0.7c0.3-0.7,0.3-0.7-0.4-1.1c-0.8-0.4-1.5-0.8-2.3-1.1c-0.1,0-0.2-0.1-0.3-0.2c0.1-0.4,0.3-0.8,0.5-1.1
			c0.2-0.2,0.4,0,0.6,0.1c0.7,0.3,1.4,0.7,2.1,1c0.9,0.4,0.9,0.4,0.6,1.3C147.9,18,148.3,17.6,148.8,17.5z"/>
		<path class="st147" d="M154.1,29.1c0.3,0.6,0.6,1.2,0.8,1.8c-0.2,0.4-0.6,0.5-0.9,0.7c-0.8,0.5-1.6,0.9-2.4,1.2
			c-0.3-0.6-0.6-1.2-0.8-1.8C151.9,30.5,153,29.8,154.1,29.1z"/>
		<path class="st149" d="M149.5,28.3c-0.3-0.2-0.7-0.1-1-0.1c-0.2-1.2,0-2.4-0.1-3.6c0-0.2,0.2-0.3,0.3-0.3c0.5,0,1-0.1,1.5,0.1
			c0.2,0.1,0.2,0.3,0.2,0.5c0,1,0,1.9,0,2.9c0,0.2,0,0.4-0.2,0.5C150,28.3,149.7,28.3,149.5,28.3z"/>
		<path class="st150" d="M141.4,30.9c-0.1-0.6-0.7-0.6-1.1-0.8c-0.7-0.4-1.5-0.7-2.2-1.1c0.2-0.5,0.5-1.1,0.7-1.6
			c0.9,0.4,1.7,0.9,2.6,1.3c0.3,0.1,0.5,0.5,0.8,0.4C142,29.7,141.7,30.3,141.4,30.9z"/>
		<path class="st151" d="M144.4,15c0.3-0.7,0.9-1,1.7-1c0.8,0,1.3,0.4,1.7,1c0.3,0.5,0.5,1.1,0.7,1.7c0.1,0.5-0.3,0.6-0.6,0.6
			c-0.3,0.1-0.3-0.3-0.3-0.5c0-0.3-0.2-0.3-0.4-0.4c-0.8-0.3-1.5-0.8-2.3-1.1C144.7,15.3,144.5,15.2,144.4,15z"/>
		<path class="st152" d="M140.2,33.6c-0.5,0.8-1.6,1.2-2.5,0.8c-0.9-0.5-1.3-1.5-0.9-2.5c0.1-0.1,0.3-0.2,0.5-0.1
			c0.9,0.4,1.7,0.9,2.7,1.3C140.2,33.2,140.3,33.3,140.2,33.6z"/>
		<path class="st153" d="M147.3,28.1c-0.5,0-0.9,0-1.4,0c-0.1-0.1-0.2-0.1-0.2-0.3c0-1.1-0.2-2.2-0.1-3.3c0-0.1,0-0.3,0.2-0.3
			c0.4-0.1,0.9-0.1,1.3,0c0.2,0.1,0.3,0.3,0.3,0.5c0,1,0,2,0,3.1C147.5,27.9,147.5,28.1,147.3,28.1z"/>
		<path class="st152" d="M155.3,31.9c0.4,1,0,2.1-1,2.5c-0.9,0.4-2,0-2.4-0.9c0.9-0.7,2-1.2,3-1.7C155,31.7,155.2,31.8,155.3,31.9z"
			/>
		<path class="st150" d="M154.1,29.1c0,0.3-0.3,0.4-0.5,0.5c-0.8,0.4-1.6,1-2.5,1.3c-0.1,0.1-0.2,0-0.4,0c-0.2-0.4-0.4-0.8-0.6-1.2
			c0.2-0.3,0.5-0.4,0.8-0.5c0.8-0.5,1.7-0.8,2.6-1.3C153.7,28.3,153.9,28.7,154.1,29.1z"/>
		<path class="st154" d="M140.7,23.2c0.2-0.5,0.4-0.9,0.6-1.3c1.2,0.5,2.4,1,3.5,1.7c0,0.3-0.1,0.5-0.2,0.8
			c-0.2,0.2-0.2,0.6-0.5,0.7c-0.8-0.5-1.7-0.9-2.6-1.3C141.2,23.7,140.8,23.6,140.7,23.2z"/>
		<path class="st155" d="M150.4,21.1c0.2,0.4,0.4,0.8,0.6,1.3c0.1,0.2-0.1,0.3-0.2,0.3c-0.9,0.5-1.9,1-2.8,1.5
			c-0.1,0.1-0.2,0.1-0.3,0c-0.4-0.4-0.6-0.9-0.7-1.4C148.1,22.2,149.3,21.6,150.4,21.1z"/>
		<path class="st156" d="M153.5,27.9c0,0.1,0,0.2-0.1,0.2c-1.1,0.5-2.2,1.1-3.2,1.6c-0.3-0.5-0.5-1-0.7-1.5c0.2-0.3,0.5-0.1,0.8-0.1
			c0.4-0.3,1-0.1,1.4-0.4c0.5-0.3,0.7-0.8,0.7-1.4c0-0.2,0-0.3,0.1-0.5C152.9,26.5,153.2,27.2,153.5,27.9z"/>
		<path class="st157" d="M140.7,23.2c0.9,0.6,1.9,0.9,2.8,1.4c0.2,0.1,0.4,0.2,0.6,0.5c0.2,0.2-0.1,0.4-0.1,0.6
			c-0.1,0.2-0.1,0.6-0.4,0.7c-0.9-0.7-1.9-1.1-2.9-1.6c-0.2-0.1-0.4-0.1-0.5-0.3C140.3,24,140.5,23.6,140.7,23.2z"/>
		<path class="st158" d="M150.4,21.1c-0.2,0.4-0.6,0.4-0.9,0.6c-0.7,0.4-1.5,0.7-2.1,1.1c-0.1,0.1-0.3,0-0.4,0
			c-0.4-0.2-0.5-0.6-0.5-1c1-0.6,2.1-1.2,3.1-1.7c0.1,0,0.2-0.1,0.3,0C150.2,20.4,150.3,20.7,150.4,21.1z"/>
		<path class="st159" d="M147.3,28.1c0.1-1.3,0.1-2.5,0-3.8c0.1-0.1,0.3-0.2,0.4-0.1c0.6-0.1,1.2-0.2,1.8-0.1c0.3,0,0.6,0,1,0
			c0.2,0,0.4,0,0.5,0.3c-0.2,0.2-0.5,0.1-0.7,0c-0.5,0-0.9,0-1.4,0c-0.4,0-0.4,0.1-0.4,0.4c0,1.1,0.1,2.2-0.1,3.3
			C148.1,28.1,147.7,28.1,147.3,28.1z"/>
		<path class="st160" d="M144.4,15c0.9,0.2,1.7,0.8,2.6,1.1c0.2,0.1,0.4,0.2,0.6,0.3c0.1,0.1,0.3,0.1,0.2,0.3c0,0.2-0.2,0.4,0,0.5
			c0.2,0.1,0.3-0.1,0.5-0.2c0.1-0.1,0.2-0.2,0.2-0.3c0.2,0.2,0.3,0.5,0.4,0.8c-0.5,0.3-1.1,0.6-1.6,0.9c-0.1-0.1-0.1-0.2-0.1-0.3
			c0.3-0.8,0.3-0.8-0.4-1.1c-0.9-0.4-1.8-0.8-2.7-1.3C144.1,15.5,144.2,15.2,144.4,15z"/>
		<path class="st161" d="M140.1,24.5c1,0.3,1.9,0.9,2.9,1.3c0.2,0.1,0.4,0.3,0.4,0.5c0.1,0.4-0.1,0.8-0.5,1c0-0.2-0.1-0.4-0.4-0.5
			c-0.8-0.4-1.6-0.8-2.4-1.2c-0.2-0.1-0.4-0.1-0.6,0C139.7,25.2,139.9,24.8,140.1,24.5z"/>
		<path class="st162" d="M141.6,21.2c0.1-0.4,0.2-0.7,0.5-1c1.1,0.3,2.1,0.9,3.1,1.4c0.2,0.1,0.3,0.3,0.3,0.5
			c-0.1,0.3-0.1,0.6-0.4,0.8c0,0,0,0-0.1,0c-1.2-0.4-2.3-1-3.4-1.6C141.6,21.3,141.6,21.2,141.6,21.2z"/>
		<path class="st163" d="M146.7,19.2c-0.1,0.2-0.2,0.5-0.2,0.7c-0.1,0.1-0.1,0.3-0.3,0.3c-1.1-0.3-2-0.9-3-1.4
			c-0.2-0.1-0.4-0.2-0.2-0.5c0.1-0.4,0.3-0.7,0.5-1c0.7,0.7,1.6,0.9,2.4,1.3C146.1,18.8,146.5,18.9,146.7,19.2z"/>
		<path class="st164" d="M145.4,22c-0.1-0.2-0.2-0.3-0.4-0.4c-0.9-0.4-1.8-1-2.7-1.3c-0.1,0-0.1-0.1-0.2-0.1c0.1-0.4,0.2-0.7,0.5-1
			c0.9,0.6,1.9,0.9,2.8,1.4c0.2,0.1,0.5,0.2,0.5,0.5C145.9,21.4,145.9,21.8,145.4,22z"/>
		<path class="st165" d="M145.7,24.4c0.1,0.2,0,0.5,0.1,0.7c0.1,1,0.1,2,0.2,3.1c-0.3,0-0.7,0-1,0c-0.2-0.3-0.2-0.6-0.2-0.9
			c-0.1-1-0.2-1.9,0.1-2.8C145.1,24.2,145.4,24.1,145.7,24.4z"/>
		<path class="st166" d="M140.2,33.6c0-0.4-0.3-0.5-0.6-0.6c-0.9-0.2-1.6-0.7-2.4-1.1c-0.2-0.1-0.3,0-0.4,0c0.2-0.3,0.3-0.7,0.5-1
			c1.1,0.6,2.3,1.1,3.4,1.7C140.5,32.9,140.4,33.3,140.2,33.6z"/>
		<path class="st167" d="M150,20c-1.1,0.5-2.2,1.3-3.4,1.7c-0.3-0.2-0.4-0.4-0.4-0.8c0.8-0.6,1.7-1,2.6-1.5c0.3-0.1,0.5-0.3,0.8-0.5
			C149.7,19.3,149.9,19.7,150,20z"/>
		<path class="st168" d="M141.6,21.2c1.1,0.5,2.3,1.1,3.4,1.6c0.1,0.4,0,0.6-0.4,0.8c-1.1-0.5-2.2-1-3.3-1.5c-0.1,0-0.1-0.1-0.1-0.2
			C141.4,21.6,141.5,21.4,141.6,21.2z"/>
		<path class="st169" d="M146.7,19.2c-1-0.5-2-1-3-1.5c-0.2-0.1-0.3-0.2-0.3-0.5c0-0.2,0.1-0.3,0.2-0.5c1.1,0.3,2.1,1,3.1,1.4
			C147.3,18.5,146.7,18.9,146.7,19.2z"/>
		<path class="st170" d="M155.3,31.9c-0.2,0-0.3,0-0.5,0.1c-0.8,0.5-1.6,0.9-2.4,1.3c-0.2,0.1-0.4,0.1-0.6,0.2
			c-0.2-0.2-0.3-0.4-0.3-0.7c0.2-0.3,0.6-0.4,0.9-0.5c0.9-0.4,1.6-0.9,2.5-1.4C155.1,31.2,155.2,31.6,155.3,31.9z"/>
		<path class="st171" d="M145.9,21c-1-0.5-2-1-3.1-1.5c-0.2-0.1-0.2-0.2-0.2-0.3c0.1-0.3,0.2-0.5,0.3-0.8c0,0.2,0.2,0.3,0.4,0.4
			c1,0.5,2,1,2.9,1.5c0.2,0.2,0,0.4,0,0.6C146.1,20.8,146.1,21,145.9,21z"/>
		<path class="st168" d="M144.8,24.4c0,1.3,0,2.5,0.1,3.8c-0.3,0-0.7,0-1,0c-0.2-0.6,0-1.3-0.1-1.9c0-0.2,0.1-0.4,0-0.6
			c0.1-0.2,0.2-0.4,0.2-0.6c0.2-0.2,0.2-0.5,0.5-0.7C144.6,24.3,144.7,24.3,144.8,24.4z"/>
		<path class="st169" d="M146.1,20.7c0-0.2,0.1-0.4,0.1-0.6c0.1-0.1,0.2-0.2,0.2-0.2c1-0.4,2-0.8,2.8-1.5c0.1,0.2,0.2,0.4,0.2,0.6
			c0,0.1,0,0.3-0.1,0.3c-1,0.5-2,1.1-3,1.6c0,0-0.1,0-0.2,0C146.1,20.9,146,20.9,146.1,20.7z"/>
		<path class="st172" d="M149.5,24.3c-0.4,0-0.9,0-1.3,0.1c-0.2,0.1-0.4,0.1-0.5-0.1l0,0l0,0c1.1-0.6,2.3-1.2,3.3-1.8
			c0.2,0.2,0.3,0.5,0.4,0.8c-0.4,0.5-1.1,0.6-1.6,1C149.7,24.1,149.6,24.2,149.5,24.3z"/>
		<path class="st166" d="M152.6,25.8c0,0.8-0.1,1.5-0.8,1.9c-0.3,0-0.4-0.2-0.4-0.4c-0.1-0.8-0.1-1.5,0-2.3c0-0.2,0.1-0.3,0.3-0.4
			c0.3-0.1,0.3,0.2,0.5,0.2C152.3,25.2,152.5,25.5,152.6,25.8z"/>
		<path class="st173" d="M152.2,24.9c-0.1-0.1-0.3-0.1-0.4-0.2c-0.3-0.1-0.6-0.1-0.8-0.3c-0.5-0.2-1,0-1.5-0.1
			c0.2-0.6,0.9-0.5,1.2-0.9c0.2-0.1,0.4-0.2,0.6-0.3C151.7,23.7,151.9,24.3,152.2,24.9z"/>
		<path class="st174" d="M143.8,25.6c0.1,0,0.2,0,0.2,0.1c0,0.8,0.1,1.6,0,2.4c-0.4,0-0.8,0-1.2,0c0.1-0.3,0.2-0.5,0.3-0.8
			c0.2-0.3,0.4-0.7,0.5-1C143.7,26.1,143.7,25.8,143.8,25.6z"/>
		<path class="st140" d="M157.5,41.7c0-7.6,0-15.1,0-22.7c0-0.3-0.1-0.5,0.1-0.8c0,0,0.1,0,0.1,0c0.1,0.1,0.1,0.2,0.1,0.3
			c0,2,0.1,3.9,0.1,5.9c0,0.7,0,1.5,0.1,2.2c0,2.7,0,5.5,0,8.2c0,2.2-0.2,4.4-0.1,6.6c0,0.1,0,0.2-0.1,0.3
			C157.6,41.7,157.6,41.7,157.5,41.7z"/>
		<path class="st175" d="M157.6,18c0-1.8,0-3.7,0-5.5c0-1,0-2,0-3.1c0-0.2-0.1-0.4,0.1-0.5c0,1.3,0,2.6,0.1,3.9
			c0.3,1.4,0.2,2.8-0.1,4.3c0-0.4,0.2-0.7,0.4-1c0.7-1.2,1.2-2.5,1.8-3.8c0.2-0.4,0.3-0.8,0.7-1.1c0,0,0.1-0.1,0.1-0.1
			c0,0,0.1,0,0.1,0C159.9,13.4,158.9,15.8,157.6,18z"/>
		<path class="st176" d="M157.7,26.7c0-2.8,0-5.6,0-8.4c0.2,0.2,0.1,0.5,0.1,0.8c0,0.8,0,1.7,0,2.5c0.1,1.3,0,2.6,0,3.8
			c0,0.4,0.2,0.8,0,1.2C157.9,26.6,157.8,26.7,157.7,26.7z"/>
		<path class="st108" d="M161,19.1c-0.2-0.6-0.2-1,0.1-1.5C161.1,18.1,161.2,18.6,161,19.1z"/>
		<path class="st177" d="M161.3,25.6c0,0.5,0,1,0,1.5c-0.1,0.1,0,0.4-0.3,0.4c-0.5,0-0.3,0.3-0.3,0.6c0.2,0.8,0,1.1-0.9,1.1
			c-0.4,0-0.7,0-1.1,0c-0.4,0-0.5-0.2-0.5-0.6c0.1,1.2-0.1,2.3-0.1,3.4c0,0.3-0.1,0.3-0.3,0c-0.1-1.4-0.1-2.7,0.1-4.1
			c0-0.1,0.1-0.2,0.1-0.3c0.1-0.3,0.3-0.6,0.3-1c0.1-0.6,0.6-0.5,1-0.7c0.1-0.1,0.1,0.1,0.1,0.1c0,0.1,0.1,0.2,0.1,0.2
			c0-0.3,0.4,0.2,0.4-0.2c0-0.6,0.5-0.5,0.9-0.5c0.3,0.1,0.3-0.1,0.3-0.2c0-0.5,0-0.9,0.2-1.4C161.3,24.6,161.3,25.1,161.3,25.6z"/>
		<path class="st130" d="M158.2,27.7c-0.1,1.5-0.1,3-0.1,4.6c0,0,0,0,0,0.1c0,0,0,0,0,0c-0.3-0.1-0.2-0.4-0.2-0.6c0-1.5,0-3,0-4.5
			c0-0.2-0.1-0.4,0-0.6c0-1.7,0-3.4,0-5.1c0.2,0.2,0.1,0.4,0.1,0.6c0,1.1,0,2.2,0,3.3c0,0.2-0.1,0.4,0.1,0.6
			c0.3,0.2,0.2,0.6,0.2,0.8C158.2,27.1,158.2,27.4,158.2,27.7z"/>
		<path class="st178" d="M157.8,27.2c0.2,0.2,0.1,0.4,0.1,0.6c0,1.5,0,2.9,0,4.4c0,0,0,0,0,0c0,0,0.1,0,0.1,0
			c0.2-0.1,0.1-0.4,0.1-0.5c-0.1-1.1,0.2-2.2,0.2-3.4c0,0.6,0.3,0.8,0.8,0.7c0.4-0.1,0.9,0.1,1.3-0.1c0.4-0.2,0.3-0.4,0.2-0.6
			c-0.1-0.2-0.1-0.3-0.1-0.5c0-0.3-0.1-0.6,0.4-0.4c0.2,0.1,0.2-0.3,0.3-0.3c0,0.5,0,1.1,0,1.6c-0.3,0.5-0.1,1.1-0.2,1.6
			c0,0.1,0.1,0.4-0.3,0.3c-0.1,0-0.4,0.1-0.6,0.1c-0.2,0-0.3,0.1-0.3,0.2c-0.2,0.4-0.4,0.5-1,0.5c-0.4,0-0.7,0-0.7,0.6
			c-0.1,0.9,0,1.9-0.1,2.8c-0.1,0-0.1,0-0.2,0c-0.1-0.3,0.1-0.5,0-0.7c0-0.2-0.1-0.1-0.1-0.1c0,0,0,0,0,0c0,0.1,0.2,0.4-0.2,0.4
			C157.8,32,157.7,29.6,157.8,27.2z"/>
		<path class="st179" d="M160.5,11.2c-0.4,1-0.7,2-1.4,2.9c-0.2,0.3-0.2,0.6-0.3,0.8c-0.3,0.8-0.9,1.4-1.2,2.2
			c0.2-1.5,0.1-2.9,0.1-4.4c0.1,0.1,0.1,0.2,0.2,0.2c0.1,0,0-0.1,0.1-0.2c0.3-0.5,0.2-1,0.2-1.6c0.2,0.4,0.4,0.4,0.6,0.1
			c0.3-0.4,0.9-0.4,1.2,0c0.2,0.2,0.2,0.1,0.2-0.1C160.4,10.9,160.5,11,160.5,11.2z"/>
		<path class="st180" d="M134.4,13c-0.6,0.8-1.4,1.2-2.2,1.7c-0.3,0.2-0.5,0.5-0.8,0.7c-0.1-1,0.6-1.9,1.7-1.9c0.7,0,1-0.3,1.1-0.9
			c0-0.1,0-0.3,0.3-0.4C134.4,12.4,134.4,12.7,134.4,13z"/>
		<path class="st180" d="M131.3,15.4c-0.1,0.4-0.4,0.4-0.7,0.5c0,0,0-0.1,0-0.1c0-0.2,0-0.5,0.2-0.6C131.1,15,131.2,15.3,131.3,15.4
			z"/>
		<path class="st181" d="M157.8,27.2c0,2.2,0,4.5,0,6.7c0,0.2-0.1,0.4,0.1,0.6c0.2,0.8,0,1.7,0,2.5c0,0.1,0,0.3-0.1,0.3
			c-0.1-0.6,0-1.2-0.1-1.8c0-0.2,0.1-0.4-0.1-0.7c0-2.7,0-5.5,0-8.2c0,0,0.1,0,0.1,0C157.8,26.8,157.8,27,157.8,27.2z"/>
		<path class="st182" d="M157.7,34.8c0.2,0.6,0.1,1.2,0.1,1.8c0,0.2,0,0.4,0,0.7c0,1.1,0,2.1,0,3.2c-0.1,0.4,0.1,0.9-0.1,1.3
			c0,0,0-0.1,0-0.1C157.7,39.4,157.7,37.1,157.7,34.8z"/>
		<path class="st183" d="M157.9,37c0-0.8,0-1.7,0-2.5c0-0.2,0-0.4,0-0.6c0,0,0.1,0,0.1,0c0,0.3,0,0.6,0,0.9c0.1,0.2,0.1,0.5,0,0.7
			C158,36,158.2,36.5,157.9,37z"/>
		<path class="st138" d="M158,35.5c0-0.2,0-0.5,0-0.7c0,0,0.1,0,0.1,0C158.1,35.1,158.2,35.3,158,35.5z"/>
		<path class="st147" d="M151,24.4c0.3,0,0.6,0.1,0.8,0.3c-0.2,0.1-0.2,0.2-0.2,0.4c0,0.7,0,1.5,0,2.2c0,0.2,0.1,0.3,0.2,0.4
			c-0.4,0.4-1,0.3-1.5,0.3c0.1-1.3,0.1-2.5,0-3.8C150.5,24.4,150.8,24.4,151,24.4z"/>
		<path class="st177" d="M160.9,28.9c0-0.3,0-0.5,0-0.7C161,28.5,161,28.7,160.9,28.9z"/>
	</g>
</g>
</svg>
